<svg id="レイヤー_1" data-name="レイヤー 1" xmlns="http://www.w3.org/2000/svg" width="419.5" height="207.3" viewBox="0 0 419.5 207.3"><defs><style>.cls-1{fill:#fff;}.cls-2{isolation:isolate;}.cls-3{fill:#dc000c;}</style></defs><g id="グループ_4545" data-name="グループ 4545"><path id="パス_6455" data-name="パス 6455" class="cls-1" d="M43,.05H376.5a43.06,43.06,0,0,1,43,43v121.3a43.06,43.06,0,0,1-43,43H43a43.06,43.06,0,0,1-43-43V43.05A43,43,0,0,1,43,.05Z" transform="translate(0 -0.05)"/></g><g class="cls-2"><path class="cls-3" d="M76.9,166.3c-.8.6-2.1.2-3-1s-.8-2.5.1-3c12.3-7.7,15.1-14.5,15.9-19.5h-11a68,68,0,0,1-7.4,8.9c-.7.8-2,.6-3.1-.3s-1.2-2.3-.5-3c6.8-7,8.8-10,10.5-15.5.3-1,1.5-1.5,2.9-.9s2,1.7,1.7,2.6a34.54,34.54,0,0,1-1.4,3.4h6.5a19.64,19.64,0,0,0,4.2-.4,1.67,1.67,0,0,1,1.2.1,3.18,3.18,0,0,1,1.5,1.2,2.28,2.28,0,0,1,.7,1.9C92.8,151.5,91,156.6,76.9,166.3Zm19.6-29.8a1.19,1.19,0,0,1-1.6-.1l-2.1-3.2c-.3-.4-.1-1,.6-1.5a1.2,1.2,0,0,1,1.6,0l2.1,3.3A1.25,1.25,0,0,1,96.5,136.5Zm4.2-1.6a1.19,1.19,0,0,1-1.6-.1L97,131.6c-.3-.4-.1-1.1.6-1.5s1.3-.4,1.6.1l2.1,3.3C101.6,133.9,101.4,134.5,100.7,134.9Z" transform="translate(0 -0.05)"/><path class="cls-3" d="M109.3,150.7c-1.2.4-2.3,0-2.5-.9a25.72,25.72,0,0,0-2.2-6.4,1.7,1.7,0,0,1,1.1-2.2c1.1-.4,2.1-.3,2.6.4a31.26,31.26,0,0,1,2.6,6.8C111.2,149.4,110.6,150.3,109.3,150.7Zm5.4,14.2c-.7.6-1.8.4-2.8-.6a1.72,1.72,0,0,1-.2-2.6c8.3-6.9,10.8-11,12.6-20.3a1.85,1.85,0,0,1,2.6-1.1,2.2,2.2,0,0,1,1.8,2.4C126.4,152.1,123.4,157.5,114.7,164.9Zm2.5-15.8a1.81,1.81,0,0,1-2.4-1.1,30.4,30.4,0,0,0-1.8-6.4,1.67,1.67,0,0,1,1.2-2.1c1.2-.4,2.1-.2,2.5.6.9,1.6,1.4,3.3,2.3,6.9C119.2,147.8,118.6,148.7,117.2,149.1Z" transform="translate(0 -0.05)"/><path class="cls-3" d="M160.6,164.3c-1.2,1.1-2.4,1.1-3.1.4l-9.1-9.4a80.57,80.57,0,0,1-12.2,10c-.8.6-2,.4-3-.8s-.9-2.4,0-3c15-10.2,18.1-17.6,18.7-21.8H135.8c-1,0-1.8-1-1.8-2.4s.8-2.5,1.8-2.5h14.4a17.58,17.58,0,0,0,3.1-.2,2.16,2.16,0,0,1,1.1-.1,5.38,5.38,0,0,1,2.2,1.2,2.18,2.18,0,0,1,1,2.3c-1.4,5.3-2.8,9.3-6.1,13.7l9.6,9.5A2.19,2.19,0,0,1,160.6,164.3Zm.5-27.4a1.1,1.1,0,0,1-1.6-.2l-2.1-3.2c-.3-.5-.1-1.1.6-1.5s1.3-.4,1.6.1l2.1,3.3C161.9,135.7,161.7,136.4,161.1,136.9Zm4-2.2c-.6.4-1.3.4-1.6-.1l-2.1-3.2c-.3-.4-.1-1,.6-1.5a1.19,1.19,0,0,1,1.6.1l2.1,3.2A1.12,1.12,0,0,1,165.1,134.7Z" transform="translate(0 -0.05)"/><path class="cls-3" d="M199,150.5c-2.7.7-5,1.3-7,1.9,0,1.3.1,2.8.1,4,0,1-.9,1.9-2.4,2.1s-2.6-.6-2.6-1.7V154c-5,2-6.2,3.5-6.2,5.2s1.5,2.5,5.4,2.5a64.21,64.21,0,0,0,9.6-1.1c1-.2,2.1.8,2,2.3s-.8,2.5-1.9,2.6c-4.5.2-8.7.6-10.7.6-4.7,0-9.3-1.6-9.3-6.6,0-4.1,3.2-7.1,10.9-10.2-.4-2.1-1.5-2.8-3-2.8-3,0-7.3,3.2-9.7,5.8-.4.6-.8,1.1-1.2,1.7-.6.8-1.8.9-3,.1a1.84,1.84,0,0,1-.8-2.7,94,94,0,0,0,8.1-11.7,46.62,46.62,0,0,1-5.3,0c-1,0-1.9-1.1-2-2.6a1.85,1.85,0,0,1,2.1-2.2,46.48,46.48,0,0,0,7.5,0,17.16,17.16,0,0,0,1.2-3.9c.2-1,1.3-1.8,2.9-1.5s2.4,1.3,2.1,2.3-.6,1.8-.9,2.6c2.6-.3,5.2-.7,7.6-1.2,1-.2,2.1.6,2.1,2.1s-.6,2.5-1.6,2.7c-3.2.6-6.8,1.1-10.3,1.4-1,1.8-2.2,3.8-3.9,6.3h.2c1.4-.9,4.7-2.8,7.3-2.8,3,0,4.8,1,5.4,4.4,1.8-.6,3.8-1.3,5.9-2,1-.3,2.2.4,2.6,2C200.7,149.1,200.1,150.3,199,150.5Z" transform="translate(0 -0.05)"/><path class="cls-3" d="M209.2,161.4c-.5,1.3-1.8,5.6-3.6,5.6-.8,0-2-.7-2-1.7,0-.4,2.1-3.9,2.6-5a1.44,1.44,0,0,1,1.4-.8,1.69,1.69,0,0,1,1.8,1.6C209.3,161.2,209.2,161.3,209.2,161.4Zm4.5-2.5h-6a3,3,0,0,1-3-3V133.6a3,3,0,0,1,3-3h6a3,3,0,0,1,3,3v22.3A3,3,0,0,1,213.7,158.9ZM213,135a.9.9,0,0,0-.9-.9h-2.6a.9.9,0,0,0-.9.9v3.8H213Zm0,7.4h-4.4v4.7H213Zm0,8.3h-4.4v3.8a.9.9,0,0,0,.9.9h2.6a.9.9,0,0,0,.9-.9Zm2.6,16.2a1.05,1.05,0,0,1-1-.8l-2.4-4.8a1.42,1.42,0,0,1-.2-.6c0-.8,1.4-1.4,2.1-1.4.5,0,.8.3,1.1.8l2.5,4.5a1.08,1.08,0,0,1,.2.7C217.8,166.2,216.4,166.9,215.6,166.9Zm23.9-6h-.9v2c0,2.3-1.1,3.8-3.6,3.8h-2.6c-.9,0-1.3-.4-1.3-1.6s.8-1.5,1.2-1.5h1.3c.8,0,1.2-.5,1.2-1.3v-1.6h-11v4.5c0,1-.5,1.5-1.9,1.5s-1.8-.5-1.8-1.5v-4.3h-1c-.7,0-1.3-.7-1.3-1.7s.6-1.7,1.3-1.7h1V151a3,3,0,0,1,3-3h4.6v-1.9h-8.2c-.9,0-1.3-.4-1.3-1.6s.4-1.6,1.3-1.6h3.2v-2H221c-.8,0-1.1-.3-1.1-1.4s.4-1.4,1.1-1.4h1.7V136h-2.6c-.9,0-1.3-.4-1.3-1.6s.4-1.6,1.3-1.6h2.6v-1.2c0-1,.5-1.6,2-1.6s2,.6,2,1.6v1.2H232v-1.2c0-1,.5-1.6,2-1.6s2,.6,2,1.6v1.2h2.7c.8,0,1.3.4,1.3,1.6s-.4,1.6-1.3,1.6H236v2.1h1.8c.8,0,1.2.4,1.2,1.4s-.4,1.4-1.2,1.4H236v2h3.3c.8,0,1.3.4,1.3,1.6s-.4,1.6-1.3,1.6h-8.2V148h4.6a3,3,0,0,1,3,3v6.5h.9c.7,0,1.3.7,1.3,1.7S240.2,160.9,239.5,160.9Zm-11.8-10.1h-3a.9.9,0,0,0-.9.9V153h3.9Zm0,4.7h-3.9v2.2h3.9Zm4.3-19.6h-5.3V138H232Zm0,4.9h-5.3v2H232Zm2.8,10.9a.9.9,0,0,0-.9-.9H231V153h3.8Zm0,3.8H231v2.2h3.8Z" transform="translate(0 -0.05)"/><path class="cls-3" d="M276.9,166a1.5,1.5,0,0,1-1.1-.4,36.64,36.64,0,0,1-13.8-20,40,40,0,0,1-13.8,20.2,1.69,1.69,0,0,1-1,.3,3,3,0,0,1-2.8-2.9,1.94,1.94,0,0,1,.8-1.6c5.7-4,10.4-11.2,12.5-19.3a2.14,2.14,0,0,1,2.1-1.5,2.54,2.54,0,0,1,1.2.4c-.4-2.9-.8-4.7-1.6-4.7h-7.6a2.33,2.33,0,0,1-2.1-2.6,2.14,2.14,0,0,1,2.1-2.4h10.1c1.9,0,3.2,1.5,3.4,3.5,0,.5.4,3.3.7,5,1.9,10.1,6.3,16.5,12.8,20.8a2,2,0,0,1,.9,1.8C279.6,164.2,278.3,166,276.9,166Z" transform="translate(0 -0.05)"/><path class="cls-3" d="M316.9,139.7c-2.3.3-6.6.6-11.7.7v6.1a9.72,9.72,0,0,1,1.7,5.8c0,6.1-1.4,9.8-11.2,14.7-.9.5-2.2,0-3-1.3s-.5-2.6.5-3c6.5-2.8,8.1-4.1,8.5-7.4a7.54,7.54,0,0,1-5,2.5c-3.1,0-5.7-2.3-5.7-7.3,0-4.7,3.5-7.4,6.6-7.4a13.61,13.61,0,0,1,3,.4v-3c-5,.1-10.5.1-15.2,0-1,0-1.9-1.1-1.9-2.7s1-2.5,2-2.4a139.94,139.94,0,0,0,15,.4,26.39,26.39,0,0,0-.4-4.1c0-1,1-1.9,2.5-1.9s2.6.9,2.6,1.9v3.9a109.89,109.89,0,0,0,11.1-.9,2,2,0,0,1,2.2,2.2C318.5,138.5,317.9,139.5,316.9,139.7Zm-18.8,7.6a2.85,2.85,0,0,0-2.6,3.1c0,1.8,1,2.9,2.4,2.9,1.8,0,2.6-1.6,2.8-4.6A3.59,3.59,0,0,0,298.1,147.3Z" transform="translate(0 -0.05)"/><path class="cls-3" d="M337.6,166.3c-6.3,0-9.1-3.6-9.1-6.6a6,6,0,0,1,6.2-5.8c1.6,0,3.4,1,5.5,3.3.5.6.3,1.5-.5,2.2a1.7,1.7,0,0,1-2.3.1c-1.1-1.3-2.1-2-2.8-2-1.4,0-2.2.8-2.2,1.9s1.4,2.4,4.2,2.4c6.1,0,9.8-3.6,9.8-6.8s-3.1-6.3-7.2-6.3c-4.8,0-10.2,3-13.6,6.8-.7.8-2,.8-3.1-.3s-1.2-2.5-.4-3.2a31.51,31.51,0,0,1,3-2.4c6.3-6.1,11.5-10.8,14.1-13-1.8.1-7.3,1-10.9,1.6-1.1.2-2.2-.8-2.4-2.4s.7-2.8,1.8-2.8c6.7-.3,12.8-.9,15.4-1.6a3.63,3.63,0,0,1,3.4,1,2,2,0,0,1-.2,3,120.52,120.52,0,0,0-10,9,29.86,29.86,0,0,1,4.3-.4c6.6,0,11.5,4.6,11.5,10.4C352,161.6,345,166.3,337.6,166.3Z" transform="translate(0 -0.05)"/></g><g class="cls-2"><path class="cls-3" d="M110.6,101.8a16.91,16.91,0,0,1-2.6,1.1,10.91,10.91,0,0,0,.6,1.1,4.5,4.5,0,0,0,.9,1,.75.75,0,0,1,.2,1c-.3.4-.6.6-.9.5a9.67,9.67,0,0,0-2.9-.4c-1.7,0-2.3.6-2.3,1.1,0,.7.8,1.1,2.4,1.1a22.29,22.29,0,0,0,3.3-.3c.4-.1.7.3.8.8a.92.92,0,0,1-.6,1c-1,.1-2.5.2-3.5.2-3.4,0-4.3-1.3-4.3-2.8,0-1.3,1.6-2.4,3.8-2.4.6,0,1.5.1,1.8.1q-.3-.45-.9-1.5c-1.7.5-3.6.8-5.2,1.1-.3,0-.6-.2-.7-.7s.2-.8.5-.8a22.34,22.34,0,0,0,4.8-.9c-.2-.4-.4-.9-.6-1.4a23.66,23.66,0,0,1-3.8.8.84.84,0,0,1-.7-.7.64.64,0,0,1,.5-.8,25.78,25.78,0,0,0,3.4-.7c-.1-.3-.3-.7-.4-1s.1-.7.6-.9a.87.87,0,0,1,1.1.3c.1.3.3.7.4,1.1a11.32,11.32,0,0,0,1.8-.7.74.74,0,0,1,.9.4c.2.4.1.8-.2.9a13.05,13.05,0,0,1-1.9.7c.2.5.4,1,.6,1.4a12.83,12.83,0,0,0,2.5-1,.81.81,0,0,1,.9.3C111,101.3,110.9,101.6,110.6,101.8Zm.4-2.2a.45.45,0,0,1-.6,0l-.8-1.2c-.1-.1,0-.3.2-.5a.45.45,0,0,1,.5,0l.8,1.2C111.3,99.3,111.2,99.5,111,99.6Zm1.3-.7a.45.45,0,0,1-.5,0l-.8-1.2c-.1-.1,0-.4.2-.5a.45.45,0,0,1,.5,0l.8,1.2A.37.37,0,0,1,112.3,98.9Z" transform="translate(0 -0.05)"/><path class="cls-3" d="M120.8,103.6c-.6.1-1.6.2-2.5.3a17,17,0,0,0,.1,2.4c.7.3,1.5.7,2.6,1.3.3.1.4.5.1.9a.66.66,0,0,1-.8.4c-.7-.4-1.4-.8-2-1.1a2,2,0,0,1-2.1,1.6c-1.6,0-2.6-.8-2.6-2s1-1.8,2.2-1.8a5,5,0,0,1,1.2.2c0-1.2-.1-2.9-.2-5.4,0-.3.3-.5.7-.5s.7.2.7.5a17.73,17.73,0,0,0,.1,2.2c.8-.1,1.7-.2,2.3-.3.3-.1.6.2.6.6S121.1,103.6,120.8,103.6Zm-5,3.2c-.6,0-.9.3-.9.6s.5.7,1.3.7c.4,0,.7-.2.8-1A3.46,3.46,0,0,0,115.8,106.8Z" transform="translate(0 -0.05)"/><path class="cls-3" d="M131.5,109.7c-1,.1-2.3.2-3.3.2-3.6,0-4.7-1.6-4.7-3.1s1.6-2.7,3.8-2.7a10.58,10.58,0,0,1,2,.3,31.25,31.25,0,0,1-1.5-2.8,45,45,0,0,1-4.4,1c-.4.1-.7-.2-.9-.8a.87.87,0,0,1,.5-1,23.51,23.51,0,0,0,4-.8,15.86,15.86,0,0,1-.8-1.8c-.2-.3.1-.8.6-1a.83.83,0,0,1,1.1.3c.3.6.5,1.2.9,1.9a16.12,16.12,0,0,0,2.5-1c.3-.2.7-.1,1,.4a.77.77,0,0,1-.1,1.1,22.63,22.63,0,0,1-2.6,1.1c.6,1.1,1.2,2.2,1.7,3a3.82,3.82,0,0,0,.9.9c.3.2.3.6.1,1s-.6.5-.9.4a8.9,8.9,0,0,0-3.5-.8c-1.7,0-2.4.6-2.4,1.3s1,1.4,2.9,1.4a18.88,18.88,0,0,0,3.2-.2.71.71,0,0,1,.7.8A1.08,1.08,0,0,1,131.5,109.7Zm1.7-7.4c-.2.1-.5.1-.6-.1l-.7-1.2a.37.37,0,0,1,.2-.5c.2-.1.4-.1.5.1l.7,1.2C133.5,101.9,133.5,102.2,133.2,102.3Zm1.3-.6c-.2.2-.4.1-.5-.1l-.7-1.2a.37.37,0,0,1,.2-.5c.2-.2.5-.1.5,0l.7,1.2C134.8,101.4,134.8,101.6,134.5,101.7Z" transform="translate(0 -0.05)"/><path class="cls-3" d="M144.7,109.6c-.8,0-1.6-.5-2.3-1.9a.74.74,0,0,1,1.3-.6c.4.7.7.9,1,.9a1.52,1.52,0,0,0,1.5-1.4c0-1.2-.8-1.9-2.3-1.9a8.51,8.51,0,0,0-2.6.5V109a1,1,0,0,1-.7,1.1,1,1,0,0,1-1.2-.2,12.11,12.11,0,0,0-2.3-2.2.69.69,0,0,1-1-.4c-.2-.5-.2-1,.2-1.2a32.9,32.9,0,0,1,3.4-2v-2.2a23.48,23.48,0,0,1-2.6.1c-.4,0-.6-.4-.7-.9a.79.79,0,0,1,.8-.8,20.78,20.78,0,0,0,2.5,0V98.2c0-.3.4-.6.9-.6s.9.3.8.7a13.43,13.43,0,0,1-.1,1.9c.5-.1,1-.1,1.4-.2s.7.2.7.7-.2.9-.5.9-1,.1-1.6.2v1.7a7.66,7.66,0,0,1,2.5-.4c2.5,0,4.1,1.3,4.1,3.6A3.25,3.25,0,0,1,144.7,109.6Zm-5-3.8a14,14,0,0,0-1.6,1c.4.4,1,.9,1.3,1.2a.19.19,0,0,0,.3-.1Zm7.4-3.7c-1.2-1-1.8-1.4-2.2-1.7-.3-.1-.5-.5-.2-1s.6-.6.9-.5a11.28,11.28,0,0,1,2.6,1.7.78.78,0,0,1,0,1.1C147.8,102.2,147.4,102.3,147.1,102.1Z" transform="translate(0 -0.05)"/><path class="cls-3" d="M160.4,104.4a24.63,24.63,0,0,0-2.4.7v1.4a.71.71,0,0,1-.8.7.69.69,0,0,1-.9-.6v-1c-1.7.7-2.2,1.2-2.2,1.8s.5.9,1.9.9a19.7,19.7,0,0,0,3.4-.4c.4-.1.7.3.7.8a.81.81,0,0,1-.7.9c-1.6.1-3,.2-3.7.2-1.6,0-3.2-.6-3.2-2.3,0-1.4,1.1-2.5,3.8-3.6a1,1,0,0,0-1.1-1,6.06,6.06,0,0,0-3.4,2c-.1.2-.3.4-.4.6s-.6.3-1,0a.73.73,0,0,1-.3-1,33.71,33.71,0,0,0,2.8-4.1h-1.8a.81.81,0,0,1-.7-.9.71.71,0,0,1,.7-.8,11.22,11.22,0,0,0,2.6,0,10.26,10.26,0,0,0,.4-1.4.78.78,0,0,1,1-.5c.5.1.8.5.7.8l-.3.9c.9-.1,1.8-.3,2.7-.4.4-.1.7.2.7.7a.92.92,0,0,1-.6,1c-1.1.2-2.4.4-3.6.5-.4.6-.8,1.3-1.4,2.2h.1a6.16,6.16,0,0,1,2.6-1c1.1,0,1.7.3,1.9,1.6.6-.2,1.3-.4,2.1-.7a.78.78,0,0,1,.9.7C161,103.9,160.8,104.3,160.4,104.4Z" transform="translate(0 -0.05)"/><path class="cls-3" d="M173,105.7v2.9a1.4,1.4,0,0,1-1.6,1.5h-1.8c-.4,0-.6-.2-.6-.7s.3-.6.5-.6h1.3a.43.43,0,0,0,.4-.4v-1.8c-1.3.7-6.8,3.2-8.2,3.2a1,1,0,0,1-.9-.9.37.37,0,0,1,.4-.4,36.21,36.21,0,0,0,7-2.4,43.17,43.17,0,0,1-6.1.6h0c-.4,0-.7-.5-.7-.9a.45.45,0,0,1,.4-.5h.8V99.4a1.11,1.11,0,0,1,1.1-1.1h2.1l.3-.7a.89.89,0,0,1,.8-.5c.3,0,1,.1,1,.5a.37.37,0,0,1-.1.3l-.2.4h3a1.11,1.11,0,0,1,1.1,1.1v4.7c.2-.1.5-.4.8-.4a.55.55,0,0,1,.5.3c.1.2.2.3.2.4C174.5,105,173.3,105.5,173,105.7Zm-1.7-5.8a.27.27,0,0,0-.3-.3h-5.1a.27.27,0,0,0-.3.3v.7h5.7v-.7Zm0,1.9h-5.7v1.1h5.7Zm0,2.1h-5.7v1.4a45.56,45.56,0,0,0,5.7-.5Z" transform="translate(0 -0.05)"/><path class="cls-3" d="M177.9,109.5c-.1.3-.5.4-.9.3s-.7-.3-.7-.6a51.06,51.06,0,0,1-.3-5.7,42.33,42.33,0,0,1,.5-5,.89.89,0,0,1,1.7.4,26.42,26.42,0,0,0-.6,4.6c0,2.2.1,3.3.1,3.7,0,.2.1.2.2,0s.3-.6.4-.9a.33.33,0,0,1,.6,0,.66.66,0,0,1,.2.7A24.46,24.46,0,0,0,177.9,109.5Zm9.1-.9a32.72,32.72,0,0,1-4,.2,2.71,2.71,0,0,1-2.9-2.3,4.83,4.83,0,0,1,.5-1.8c.1-.3.5-.4.9-.3a.66.66,0,0,1,.5.8,2.4,2.4,0,0,0-.2,1c0,.6.4.9,2.1.9a15.76,15.76,0,0,0,2.8-.2.86.86,0,0,1,.9.8C187.6,108.2,187.4,108.6,187,108.6Zm-.6-7.7a31,31,0,0,0-5.2.1.71.71,0,0,1-.7-.8c0-.5.3-.9.6-.9,1.3,0,3.6-.1,5.4-.1.4,0,.6.4.6.9A.77.77,0,0,1,186.4,100.9Z" transform="translate(0 -0.05)"/><path class="cls-3" d="M193,109.1a.78.78,0,0,1-.9-.7.86.86,0,0,1,.4-1.1c5.2-1.1,6.5-2,6.5-3.6a2.28,2.28,0,0,0-2.5-2.4c-1.6,0-2.8.4-6.9,1.5-.4.1-.8-.2-.9-.8s.1-1,.5-1.1c4.3-1,5.9-1.4,7.3-1.4,2.6,0,4.3,1.5,4.3,4C200.8,106.5,199.4,107.7,193,109.1Z" transform="translate(0 -0.05)"/><path class="cls-3" d="M203.9,109.5c-.1.3-.5.4-.9.3s-.7-.4-.7-.6a30.73,30.73,0,0,1-.5-5.9,42,42,0,0,1,.5-5.1.78.78,0,0,1,1-.5c.5.1.8.4.7.8a27.38,27.38,0,0,0-.6,4.8c0,2.3.1,3.4.1,3.8,0,.2.2.2.3.1a12.75,12.75,0,0,0,.7-1.2.51.51,0,0,1,.8,0c.3.3.4.6.2.8C204.8,107.9,204.2,109,203.9,109.5Zm9.3-7.3c-.4.1-1,.1-1.5.2v2.2c0,2-.6,3.3-2.3,5.4a.78.78,0,0,1-1.1,0c-.4-.3-.5-.8-.3-1,1.6-1.9,2-2.9,2-4.6v-1.8a24.74,24.74,0,0,1-3.8.1c-.4,0-.7-.4-.7-1a.81.81,0,0,1,.9-.8,23.25,23.25,0,0,0,3.6-.1,17.57,17.57,0,0,0-.2-2.7.79.79,0,0,1,.8-.8.81.81,0,0,1,.9.7c0,.7.1,1.6.1,2.6.5-.1,1-.1,1.4-.2s.7.3.7.8A.72.72,0,0,1,213.2,102.2Z" transform="translate(0 -0.05)"/><path class="cls-3" d="M221.3,101.6c-.6.1-1.4.3-2.3.4-.6,2.7-1.4,5.9-1.8,7.5a.78.78,0,0,1-1.1.4c-.6-.2-.8-.6-.6-1a44.15,44.15,0,0,0,1.8-6.8c-.5,0-1,.1-1.6.1-.4,0-.7-.3-.7-.9a.81.81,0,0,1,.7-.9h2c.2-.9.3-1.8.4-2.4,0-.4.5-.7,1.1-.6s.9.5.8.9-.3,1.2-.4,1.9c.6-.1,1.2-.2,1.6-.3a.66.66,0,0,1,.8.7C221.9,101.2,221.6,101.6,221.3,101.6Zm5.2,7.8c-1.6.1-2.8.1-3.8.1-2.3,0-2.8-1.3-2.8-2.1a6.75,6.75,0,0,1,.3-1.7c.1-.3.4-.5.9-.4s.7.4.6.7a5.07,5.07,0,0,0-.2.9c0,.8.3,1,2,1,.4,0,1.8-.1,2.7-.2a.81.81,0,0,1,.9.8A.69.69,0,0,1,226.5,109.4Zm-.5-6.1a12.31,12.31,0,0,0-3.7-.4c-.3,0-.6-.3-.6-.8s.3-.8.6-.8a15.26,15.26,0,0,1,4,.3.78.78,0,0,1,.5,1A1,1,0,0,1,226,103.3Z" transform="translate(0 -0.05)"/><path class="cls-3" d="M231.5,109.6c-1,0-2.7-1.9-2.9-5.1a34.86,34.86,0,0,1,.2-5.4c0-.4.4-.6.9-.6s.9.4.8.7a33.07,33.07,0,0,0-.2,5c.1,1.9.7,2.9,1.1,2.9.2,0,.6-.7,1.3-1.9a.66.66,0,0,1,1-.1c.4.3.5.6.4.9C232.4,108.6,231.8,109.6,231.5,109.6Zm8-3.2a.81.81,0,0,1-1.1-.5,27.32,27.32,0,0,0-1.6-4.3c-.2-.3,0-.8.5-1a.85.85,0,0,1,1.1.2,25.81,25.81,0,0,1,1.8,4.6C240.3,105.8,240.1,106.2,239.5,106.4Z" transform="translate(0 -0.05)"/><path class="cls-3" d="M244.3,110.1a1,1,0,1,1,1.1-1A1.1,1.1,0,0,1,244.3,110.1Zm.6-3.6a.65.65,0,0,1-.6.5.56.56,0,0,1-.6-.5l-.3-4.8v-4a.81.81,0,0,1,.9-.7.89.89,0,0,1,.9.7v4Z" transform="translate(0 -0.05)"/><path class="cls-3" d="M260,103c-.7,0-1.7.2-2.8.3-1.8,1.2-2.8,2.7-2.8,3.4,0,1.1.8,1.7,4.1,1.6a.69.69,0,0,1,.6.9c-.1.5-.3.9-.7.9-3.8.1-5.8-1-5.8-3,0-1.1.8-2.2,2.1-3.2-2,.4-4,.9-5.3,1.3-.4.1-.8-.2-1-.7s.1-1,.5-1.1h.3l1.3-.3c1.5-1.2,3.6-3.1,4.5-3.9.1-.1.1-.2-.1-.1a19.35,19.35,0,0,1-3.7.6.77.77,0,0,1-.7-.8.69.69,0,0,1,.6-.9,18.43,18.43,0,0,0,5.3-.6,1,1,0,0,1,1,.3c.3.4.3.8.1,1-1.5,1.3-3.2,2.7-4.4,3.7a64.46,64.46,0,0,1,6.8-1.1.71.71,0,0,1,.7.8C260.6,102.6,260.3,103,260,103Z" transform="translate(0 -0.05)"/><path class="cls-3" d="M270.2,109.8a1.34,1.34,0,0,1-1.5-1.4v-2.8a.63.63,0,0,0-.7-.7,7.36,7.36,0,0,0-2.7,1.6c-.6,1.2-1.1,2.2-1.4,2.9a.76.76,0,0,1-1.1.2c-.5-.3-.7-.7-.5-1,1.4-2.8,3.9-8,5.3-10.5a.89.89,0,0,1,1.1-.2.82.82,0,0,1,.5,1c-.7,1.3-1.8,3.3-2.8,5.3a5.79,5.79,0,0,1,2.3-1,1.52,1.52,0,0,1,1.6,1.6v2.6c0,.2.1.4.3.4s1.1-.4,2.7-1.8c.3-.2.7-.2,1.1.3a.78.78,0,0,1,0,1.1C272.1,109.4,270.9,109.8,270.2,109.8Z" transform="translate(0 -0.05)"/><path class="cls-3" d="M281.8,100.8c-.7.2-1.4.3-2.1.5a63.43,63.43,0,0,1-2,6.5c-.1.4-.6.5-1.1.3a.89.89,0,0,1-.6-1,39.35,39.35,0,0,0,1.9-5.5c-.5.1-.9.1-1.4.2s-.7-.3-.8-.9a.71.71,0,0,1,.7-.9,13.43,13.43,0,0,0,1.9-.1,14.81,14.81,0,0,0,.3-1.9.89.89,0,0,1,1.1-.6c.6.1.9.5.8.9a10.38,10.38,0,0,0-.3,1.2l1.4-.3c.3-.1.7.2.7.7A.94.94,0,0,1,281.8,100.8Zm4.7,8a18.65,18.65,0,0,0-2-1v.1c0,1.3-1.1,2.1-2.6,2.1-2,0-2.7-1.1-2.7-2.3a2.23,2.23,0,0,1,2.5-2.1,4.1,4.1,0,0,1,1.1.1,21.35,21.35,0,0,1,0-2.6,2.73,2.73,0,0,1,1.4-1.4,3.55,3.55,0,0,0-.9-.4c-.3-.1-.4-.5-.2-1a.81.81,0,0,1,.9-.5,16.93,16.93,0,0,1,3.3,1.6c.3.2.4.6.1,1.1s-.7.6-1,.4a4.35,4.35,0,0,0-.7-.4c-.8.3-1.3.8-1.3,1.2v2.4c.8.3,1.7.6,2.8,1.1.4.2.5.6.2,1.1A.68.68,0,0,1,286.5,108.8Zm-3.6-1.7a6,6,0,0,0-1.2-.2c-.8,0-1.1.5-1.1.9a1,1,0,0,0,1.1.9,1.18,1.18,0,0,0,1.2-1.3Z" transform="translate(0 -0.05)"/><path class="cls-3" d="M301.1,100.5h-6.2c0,.6-.1,1.1-.1,1.7h4.7a1.1,1.1,0,0,1,1.1,1v3.2c0,2.5-.8,3.5-2.8,3.5h-1.5c-.5,0-.8-.2-.8-1s.4-.8.7-.8h1.4c.8,0,1.2-.5,1.2-1.8V104a.27.27,0,0,0-.3-.3h-3.9a11.92,11.92,0,0,1-3.7,6,.76.76,0,0,1-.4.2,1.27,1.27,0,0,1-1.1-1.1.76.76,0,0,1,.2-.5c2.2-1.8,3.4-4.2,3.5-7.8h-3.4c-.4,0-.7-.2-.7-.8s.2-.8.7-.8h4.9V98c0-.5.2-.7.9-.7s.9.3.9.7v.9h4.9c.4,0,.7.2.7.8C301.7,100.3,301.5,100.5,301.1,100.5Z" transform="translate(0 -0.05)"/><path class="cls-3" d="M304.7,109.5c-.1.3-.5.4-.9.3s-.7-.3-.7-.6a51.06,51.06,0,0,1-.3-5.7,42.33,42.33,0,0,1,.5-5,.89.89,0,0,1,1.7.4,26.42,26.42,0,0,0-.6,4.6c0,2.2.1,3.3.1,3.7,0,.2.1.2.2,0s.3-.6.4-.9a.33.33,0,0,1,.6,0,.66.66,0,0,1,.2.7A24.46,24.46,0,0,0,304.7,109.5Zm9.2-.9a32.72,32.72,0,0,1-4,.2,2.71,2.71,0,0,1-2.9-2.3,4.83,4.83,0,0,1,.5-1.8c.1-.3.5-.4.9-.3a.66.66,0,0,1,.5.8,2.4,2.4,0,0,0-.2,1c0,.6.4.9,2.1.9a15.76,15.76,0,0,0,2.8-.2.86.86,0,0,1,.9.8C314.5,108.2,314.2,108.6,313.9,108.6Zm-.7-7.7a31,31,0,0,0-5.2.1.77.77,0,0,1-.7-.8c0-.5.3-.9.6-.9,1.3,0,3.6-.1,5.4-.1.4,0,.6.4.6.9A.77.77,0,0,1,313.2,100.9Z" transform="translate(0 -0.05)"/><path class="cls-3" d="M318.8,109.5a2.4,2.4,0,1,1,2.4-2.4A2.43,2.43,0,0,1,318.8,109.5Zm0-3.8a1.4,1.4,0,1,0,1.4,1.4A1.5,1.5,0,0,0,318.8,105.7Z" transform="translate(0 -0.05)"/></g><g id="グループ_4523" data-name="グループ 4523"><path id="パス_6437" data-name="パス 6437" class="cls-3" d="M241.27,47.12a1.38,1.38,0,0,1-.3-.4,4,4,0,0,0-1.2-2.6,17.29,17.29,0,0,0-3.5-3.1,17.17,17.17,0,0,0-6-3.1.22.22,0,0,1-.2-.2,6.45,6.45,0,0,0-3-2.4,45.88,45.88,0,0,0-4.8-1.7,17.44,17.44,0,0,0-7.2-.9.37.37,0,0,1-.3-.1,3.58,3.58,0,0,0-2.2-1.1,13,13,0,0,0-4.4-.1,24.66,24.66,0,0,0-9.3,2.2.3.3,0,0,1-.4,0,3.36,3.36,0,0,0-2.4-.4,19.09,19.09,0,0,0-4.1,1.1,25,25,0,0,0-5.6,3.5,12.42,12.42,0,0,0-3.9,4c-.1.1-.2.1-.3.2a7.07,7.07,0,0,0-2.5,1.1,22,22,0,0,0-5,5.1A8.14,8.14,0,0,0,173,54a21.25,21.25,0,0,0,1,5.6,23.8,23.8,0,0,0,3.4,7.2,29,29,0,0,0,4.8,5.1,30.34,30.34,0,0,0,11.6,6.2,21.1,21.1,0,0,0,4.9.9,89.32,89.32,0,0,0,12.7.6,31,31,0,0,0,4.3-.2c2.4-.3,4.8-.7,7.1-1.1a36.75,36.75,0,0,0,7.1-2.3,25.5,25.5,0,0,0,2.9-1.3,53.36,53.36,0,0,0,6.5-5,19.51,19.51,0,0,0,4.8-6.2c.7-1.5,1.4-2.9,2.1-4.4a5.34,5.34,0,0,0,.4-3.3A14.84,14.84,0,0,0,241.27,47.12Zm3,11.3a25.82,25.82,0,0,1-7.8,10.9,39.19,39.19,0,0,1-3.2,2.5,36.84,36.84,0,0,1-6.9,3.4,40.61,40.61,0,0,1-10.9,2.2,92.93,92.93,0,0,1-11.8.1,44.33,44.33,0,0,1-8.9-1.2,30.17,30.17,0,0,1-15.6-10.1,22.74,22.74,0,0,1-3.6-6.9,21.26,21.26,0,0,1-1-5.5,7.12,7.12,0,0,1,1.2-4.5,19,19,0,0,1,4.9-4.9,3.1,3.1,0,0,1,1.3-.6.69.69,0,0,1,1,.3c0,.1.1.2.1.3a1.18,1.18,0,0,0,1.1,1,.85.85,0,0,0,.7-.8,2.28,2.28,0,0,0-.7-1.9.37.37,0,0,1,0-.6,10.3,10.3,0,0,1,2.6-2.5,26.22,26.22,0,0,1,5.4-3.5,11.9,11.9,0,0,1,4.1-1.1c1-.1,1.3.1,1.6,1.1.1.4.2.9.3,1.3.1.6.5,1,1,.9a1,1,0,0,0,.8-1.1h0c-.1-.5-.2-1.1-.3-1.6-.1-.3,0-.4.2-.5a22.13,22.13,0,0,1,5-1.5,24.25,24.25,0,0,1,6-.4l1.8.3a.66.66,0,0,1,.6.7,7.39,7.39,0,0,1,0,2.1,1,1,0,0,0,.6,1.1.86.86,0,0,0,1.1-.6,3.59,3.59,0,0,0,.2-1.1v-1.2a18.5,18.5,0,0,1,4.1.2,30.48,30.48,0,0,1,6.5,2,23.92,23.92,0,0,1,2.1,1.3,1.24,1.24,0,0,1,.5,1.5l-.3.9c-.1.1-.1.29-.2.39a1,1,0,0,0,.3,1,.87.87,0,0,0,1,0,3.45,3.45,0,0,0,.7-1,5.29,5.29,0,0,0,.4-1.2,6.94,6.94,0,0,1,1.3.5,23.44,23.44,0,0,1,6.8,5,1.76,1.76,0,0,1,.4.5,1.36,1.36,0,0,1,.1,1.7c-.5.8-.9,1.61-1.4,2.3,0,.1-.1.1-.1.2a.92.92,0,0,0,.1,1.21.94.94,0,0,0,1.2,0c.2-.21.4-.3.5-.6.4-.61.8-1.3,1.2-1.9.2.2.4.29.6.5a12.82,12.82,0,0,1,3.1,4.6,4.18,4.18,0,0,0,.4,1,5.51,5.51,0,0,1-.2,3.8Z" transform="translate(0 -0.05)"/><path id="パス_6438" data-name="パス 6438" class="cls-3" d="M225.27,44.12a1.61,1.61,0,0,0-.7-.4c-1.6-.6-3.3-1.3-4.9-1.9a27.59,27.59,0,0,0-8-1.5,36.41,36.41,0,0,0-9.3.6,41.61,41.61,0,0,0-10.9,3.3,24.34,24.34,0,0,0-9.5,7.9,4.88,4.88,0,0,0-.3.7c0,.5.1.7.5.9a.76.76,0,0,0,.9-.1,1.38,1.38,0,0,0,.3-.4,24.22,24.22,0,0,1,5.3-5.3,25.54,25.54,0,0,1,5.9-3.1,40.38,40.38,0,0,1,10.8-2.5,33,33,0,0,1,14.3,1.4c1.6.6,3.2,1.3,4.7,1.9a.89.89,0,0,0,1.1-.2C225.77,44.82,225.67,44.32,225.27,44.12Z" transform="translate(0 -0.05)"/></g></svg>