<svg id="レイヤー_1" data-name="レイヤー 1" xmlns="http://www.w3.org/2000/svg" width="419.5" height="207.3" viewBox="0 0 419.5 207.3"><defs><style>.cls-1{fill:#fff;}.cls-2{isolation:isolate;}.cls-3{fill:#dc000c;}</style></defs><g id="グループ_4546" data-name="グループ 4546"><path id="長方形_2855" data-name="長方形 2855" class="cls-1" d="M43,.05H376.5a43.06,43.06,0,0,1,43,43v121.3a43.06,43.06,0,0,1-43,43H43a43.06,43.06,0,0,1-43-43V43.05A43,43,0,0,1,43,.05Z" transform="translate(0 -0.05)"/><g class="cls-2"><path class="cls-3" d="M86.7,102.25H83.9v4.6c0,1.8-.2,2.3-3,3-.4.1-.7-.2-.9-.7a.74.74,0,0,1,.4-1c1.7-.3,1.8-.6,1.8-1.5v-4.4h-.3a11,11,0,0,1-4.9,6.1c-.3.2-.7.1-1-.4a.77.77,0,0,1,.1-1.1c2.5-1.6,3.5-3.1,4-4.6H76.6c-.3,0-.6-.3-.6-.8s.3-.8.6-.8h5.7v-2.3c0-.4.3-.6.8-.6s.9.3.9.6v2.3h2.8c.3,0,.6.3.6.8S87.1,102.25,86.7,102.25Z" transform="translate(0 -0.05)"/><path class="cls-3" d="M89.6,106.15c-.5,0-.9-.3-.9-.6v-6.4c0-.3.3-.6.9-.6s.9.3.9.6v6.4C90.5,105.85,90.1,106.15,89.6,106.15Zm2.8,3.8c-.3.3-.7.2-1.1-.2s-.4-.8-.1-1.1c2.8-2.5,3.1-3.4,3.1-9.8,0-.3.3-.6.9-.6s.9.3.9.6C96.1,105.45,95.9,106.65,92.4,110Z" transform="translate(0 -0.05)"/><path class="cls-3" d="M100.8,104.05a.85.85,0,0,1-1.1.3,12.24,12.24,0,0,0-2.3-1.8.75.75,0,0,1-.2-1c.3-.4.7-.6,1-.4a17.72,17.72,0,0,1,2.6,1.9C101.1,103.25,101.2,103.65,100.8,104.05Zm-1.9,5.5a.85.85,0,0,1-1-.6.78.78,0,0,1,.4-1.1,17.24,17.24,0,0,0,8.8-5.6c.2-.3.7-.2,1.1.2a.82.82,0,0,1,.2,1.1C105.2,106.75,103.5,107.85,98.9,109.55Zm3.5-8.4a14,14,0,0,0-2.5-1.6.67.67,0,0,1-.2-1,.81.81,0,0,1,.9-.5,15,15,0,0,1,2.8,1.6.77.77,0,0,1,.1,1.1A.81.81,0,0,1,102.4,101.15Zm4.7-1.1c-.2.1-.5.1-.6-.1l-.7-1.2c-.1-.1,0-.4.2-.5s.4-.1.5.1l.7,1.1C107.4,99.65,107.3,99.85,107.1,100.05Zm1.4-.8c-.2.1-.5.1-.6-.1l-.7-1.2a.37.37,0,0,1,.2-.5c.2-.1.5-.1.6.1l.7,1.2A.37.37,0,0,1,108.5,99.25Z" transform="translate(0 -0.05)"/><path class="cls-3" d="M121,102.65h-4.1c-.2,3-.8,4.3-3.2,7.2-.2.3-.7.3-1.1-.1a.85.85,0,0,1-.3-1.1c2-2.2,2.6-3.3,2.9-6h-4.8c-.3,0-.6-.3-.6-.9s.3-.8.6-.8h4.9v-2.6c0-.3.3-.6.8-.6s.9.3.9.6v2.7h4c.3,0,.6.3.6.8S121.4,102.65,121,102.65Z" transform="translate(0 -0.05)"/><path class="cls-3" d="M124.7,108.85c-.2.3-.7.2-1.1-.2s-.4-.8-.1-1.1c1.8-1.7,2.1-2.7,2.1-7.5a.93.93,0,0,1,1.8,0C127.3,105.25,126.9,106.65,124.7,108.85Zm5.2.4a.63.63,0,0,1-.8-.4,1.31,1.31,0,0,1-.3-1c0-.1,0-.1.1-.2s.2-.6.2-1.2v-6.9c0-.3.4-.6.9-.6s.9.3.9.6v7.3a12.16,12.16,0,0,0,3.5-2.4.82.82,0,0,1,1.1.2.78.78,0,0,1,0,1.1A17.93,17.93,0,0,1,129.9,109.25Z" transform="translate(0 -0.05)"/><path class="cls-3" d="M142.8,102.75q.6.15.6.6v6.1c0,.4-.3.7-.9.7s-.9-.3-.9-.6v-5.9c-1.1.7-2.3,1.5-3.7,2.4-.3.2-.7,0-1-.4s-.2-.9.1-1.1c4.3-2.4,7-4.4,8.3-6.2a.7.7,0,0,1,1.1,0,.85.85,0,0,1,.3,1.1A29.87,29.87,0,0,1,142.8,102.75Z" transform="translate(0 -0.05)"/><path class="cls-3" d="M151.3,110.05c-.3.2-.7,0-1-.5a.76.76,0,0,1,.2-1.1c3.5-1.7,5.3-3.4,5.8-5.1h-7.9c-.4,0-.6-.3-.6-.8s.3-.8.6-.8h7.5c.4,0,.8-.1,1.1-.1.1,0,.3-.1.4,0,.3.1.4.2.7.6a.86.86,0,0,1,.3.9C157.5,105.65,156.1,107.65,151.3,110.05Zm5.2-9.9h-6.7c-.4,0-.6-.4-.6-.9s.3-.9.6-.9h6.7c.4,0,.6.4.6.9S156.9,100.15,156.5,100.15Z" transform="translate(0 -0.05)"/><path class="cls-3" d="M169.5,109.35c-.4.4-.8.4-1.1.1l-3.1-3.3a36.48,36.48,0,0,1-4.2,3.5c-.3.2-.7.1-1.1-.3a.7.7,0,0,1,0-1.1c5.2-3.6,6.3-6.1,6.6-7.6H161c-.3,0-.6-.3-.6-.8s.3-.9.6-.9h5a2.81,2.81,0,0,0,1.1-.1c.1,0,.3-.1.4,0a5.9,5.9,0,0,1,.8.4,1,1,0,0,1,.4.8,11.72,11.72,0,0,1-2.2,4.8l3.3,3.3A1.45,1.45,0,0,1,169.5,109.35Z" transform="translate(0 -0.05)"/><path class="cls-3" d="M177.1,105.85l-3.8-2.7v6.4c0,.4-.3.7-.9.7s-.9-.3-.9-.6V98.15a.93.93,0,0,1,1.8,0v4.1a.73.73,0,0,1,1-.3l3.8,2.7a.78.78,0,0,1,0,1.1A.92.92,0,0,1,177.1,105.85Z" transform="translate(0 -0.05)"/><path class="cls-3" d="M188.8,105.65a9.2,9.2,0,0,1-1.9-.2c-.3-.1-.5-.4-.5-.9a.77.77,0,0,1,.7-.8,12.54,12.54,0,0,0,1.5.2c1.5,0,2.2-.8,2.2-1.7a1.34,1.34,0,0,0-1.5-1.4,5.16,5.16,0,0,0-1.1.2c.1.3.2.5.3.8a.81.81,0,0,1-.5.9.74.74,0,0,1-1-.3l-.3-.9c-.7.3-1.5.6-2.4,1,.8,1.9,1.7,4.1,2.6,6.2.1.4-.1.7-.6,1s-.9.1-1.1-.3c-.7-2.1-1.7-4.3-2.5-6.2-.5.2-1,.5-1.6.7-.3.2-.8-.1-1-.5s-.1-1,.3-1.1a11.11,11.11,0,0,0,1.6-.7,22.22,22.22,0,0,0-1.1-2.2c-.2-.3,0-.8.5-1s1-.1,1.1.2c.3.6.6,1.4,1.1,2.3.9-.4,1.7-.7,2.5-1-.2-.5-.4-1-.6-1.4s0-.7.5-.9.9-.1,1,.3.4,1,.7,1.6a7.47,7.47,0,0,1,2-.3,3.15,3.15,0,0,1,3,3A3.75,3.75,0,0,1,188.8,105.65Z" transform="translate(0 -0.05)"/><path class="cls-3" d="M197.3,109.35a.66.66,0,0,1-1-.1,22,22,0,0,0-1.8-2.8c-.2-.2-.1-.6.3-.9s.7-.3.9-.1a21.15,21.15,0,0,1,2,2.9C197.9,108.65,197.7,109.05,197.3,109.35Z" transform="translate(0 -0.05)"/><path class="cls-3" d="M209.1,100.35a.6.6,0,0,1-.6.3c-.5,0-1.7-1.4-1.9-1.7l-.9,1.2h1.7a.37.37,0,0,1,.4.4c0,.3-.1.4-.4.4h-1.8a.37.37,0,0,1-.4-.4h0c-.2.3-.7.8-1.1.8a.86.86,0,0,1-.8-.8c0-.2.1-.4.2-.4a10.82,10.82,0,0,0,2.1-2.2,1,1,0,0,1,.9-.5c.3,0,.6.1.6.4s1.5,1.5,1.8,1.7a.59.59,0,0,1,.2.5C209.3,100.05,209.2,100.15,209.1,100.35Zm-1.4,5.7h-2.2v.7h2.7c.3,0,.4.1.4.5s-.1.5-.4.5h-2.7v.7h2.7c.3,0,.4.1.4.5s-.1.5-.4.5h-2.7v.2c0,.3-.3.5-.7.5s-.7-.2-.7-.5v-6.9a1.11,1.11,0,0,1,1.1-1.1h2.6a1.11,1.11,0,0,1,1.1,1.1v2.3A1.29,1.29,0,0,1,207.7,106.05Zm-.4-3.2a.27.27,0,0,0-.3-.3h-1.2a.27.27,0,0,0-.3.3v.5h1.8Zm0,1.4h-1.8v.8H207a.27.27,0,0,0,.3-.3Zm8.2-.1a.76.76,0,0,1-.4-.2l-.3-.5a13.48,13.48,0,0,1-1.4,3,12.06,12.06,0,0,0,2.4,2.1.85.85,0,0,1,.3.6c0,.4-.3.9-.7.9-.6,0-2.4-1.9-2.8-2.4-.4.5-2,2.4-2.6,2.4a1,1,0,0,1-.8-.9.46.46,0,0,1,.3-.5,16.41,16.41,0,0,0,2.4-2.1,14,14,0,0,1-1.4-2.7c-.2.2-.4.6-.7.6a.86.86,0,0,1-.8-.8c0-.2.1-.3.1-.4a10.06,10.06,0,0,0,1.7-2.5.62.62,0,0,1,.5-.3.77.77,0,0,1,.8.7,9.93,9.93,0,0,1-1.1,2h.2a.85.85,0,0,1,.6.3,10.42,10.42,0,0,0,1,1.8,13.09,13.09,0,0,0,1-2.1.46.46,0,0,1,.5-.4c.2,0,.3.1.5.1l-1-1.5a.37.37,0,0,1-.1-.3c0-.3.5-.6.8-.6s.3.1.4.3l1.5,2.3a.37.37,0,0,1,.1.3A1.52,1.52,0,0,1,215.5,104.15Zm0-3.9h-5.6c-.4,0-.6-.2-.6-.8s.2-.8.6-.8h1.9V98c0-.4.2-.6.8-.6s.8.2.8.6v.7h2c.4,0,.6.2.6.8S215.9,100.25,215.5,100.25Z" transform="translate(0 -0.05)"/><path class="cls-3" d="M229.5,104.75h-4.7v3.5c0,1.3-.7,1.8-1.9,1.8h-1.5c-.5,0-.7-.2-.7-.9s.4-.8.7-.8h1c.5,0,.7-.2.7-.7v-2.9h-5c-.5,0-.7-.2-.7-.9s.2-.9.7-.9h5v-.2a1.94,1.94,0,0,1,1.1-1.6c.3-.2,2.2-1.2,2.2-1.5,0-.1-.1-.1-.2-.1h-6.4c-.4,0-.7-.2-.7-.8s.2-.8.7-.8h7.4c.8,0,1.6.4,1.6,1.3,0,1.1-2.9,2.8-3.7,3.3a.52.52,0,0,0-.2.4v.1h4.7c.5,0,.7.2.7.9S230,104.75,229.5,104.75Z" transform="translate(0 -0.05)"/><path class="cls-3" d="M242.9,101.05h-8.7v1.8a14.51,14.51,0,0,1-1.3,6.5.6.6,0,0,1-.6.3,1,1,0,0,1-1-.9.37.37,0,0,1,.1-.3,12.8,12.8,0,0,0,1.1-5.6v-4a1,1,0,0,1,1-1h9.3a1.1,1.1,0,0,1,1.1,1v1.2A1.08,1.08,0,0,1,242.9,101.05Zm.8,8.8h-9.3c-.3,0-.5-.2-.5-.6s.2-.6.5-.6h4v-1.1h-2.6c-.3,0-.5-.1-.5-.6s.2-.6.5-.6h2.6v-.9l-3.1.1c-.3,0-.5-.4-.5-.7a.55.55,0,0,1,.4-.5h.9l.8-1.5H235c-.3,0-.4-.1-.4-.5s.1-.5.4-.5h8.3c.3,0,.4.1.4.5s-.2.5-.4.5h-4.7l-.9,1.4c1.2,0,2.4-.1,3.4-.2-.1-.1-.4-.4-.4-.6s.5-.6.8-.6,2.1,1.6,2.1,2.1a.77.77,0,0,1-.8.7c-.3,0-.6-.5-.8-.7-.5.1-1.1.1-1.9.2v1h2.6c.3,0,.5.2.5.6s-.2.6-.5.6h-2.6v1.1h3.7c.3,0,.5.2.5.6S244,109.85,243.7,109.85Zm-1.5-10.6a.27.27,0,0,0-.3-.3h-7.3a.27.27,0,0,0-.3.3v.7h7.6a.27.27,0,0,0,.3-.3Z" transform="translate(0 -0.05)"/><path class="cls-3" d="M254.5,109.75c-1,.1-2.3.2-3.4.2-3.6,0-4.7-1.6-4.7-3.1s1.6-2.7,3.8-2.7a10.58,10.58,0,0,1,2,.3c-.3-.6-.9-1.5-1.5-2.7-1.5.4-3,.8-4.4,1.1-.4.1-.7-.3-.9-.8a.74.74,0,0,1,.5-1,22.56,22.56,0,0,0,3.9-.8l-.9-1.8c-.2-.3.1-.8.6-1s.9-.1,1.1.3c.3.6.6,1.3.9,1.9,1-.4,1.9-.8,2.5-1.1a.81.81,0,0,1,1.1.4.77.77,0,0,1-.1,1.1,23.79,23.79,0,0,1-2.7,1.2c.6,1.1,1.2,2.1,1.7,2.9a3.82,3.82,0,0,0,.9.9c.3.2.3.6.1,1s-.6.5-.9.4a9.54,9.54,0,0,0-3.5-.9c-1.7,0-2.4.6-2.4,1.3s1,1.4,2.9,1.4a18.88,18.88,0,0,0,3.2-.2.71.71,0,0,1,.7.8A.68.68,0,0,1,254.5,109.75Z" transform="translate(0 -0.05)"/><path class="cls-3" d="M265,109.85a1.34,1.34,0,0,1-1.5-1.4v-2.8a.63.63,0,0,0-.7-.7,7.36,7.36,0,0,0-2.7,1.6c-.6,1.2-1.1,2.2-1.4,2.9a.76.76,0,0,1-1.1.2c-.5-.3-.7-.7-.5-1,1.4-2.8,3.9-8,5.3-10.5a.89.89,0,0,1,1.1-.2.82.82,0,0,1,.5,1c-.7,1.3-1.8,3.3-2.8,5.3a5.79,5.79,0,0,1,2.3-1,1.52,1.52,0,0,1,1.6,1.6v2.6c0,.2.1.4.3.4s1.1-.4,2.7-1.8c.3-.2.7-.2,1.1.3a.78.78,0,0,1,0,1.1C266.9,109.45,265.7,109.85,265,109.85Z" transform="translate(0 -0.05)"/><path class="cls-3" d="M278.7,109.75c-2,.1-3.2.2-4.1.2-2.3,0-4.3-1-4.3-3.5,0-1.6.9-2.7,3.1-3.6a20.94,20.94,0,0,1-.3-4.8c0-.4.3-.6.9-.7s.9.3.9.6a38,38,0,0,0,.2,4.3,17.65,17.65,0,0,1,2.9-.7c.4-.1.7.2.8.8a.83.83,0,0,1-.6,1c-4.8.7-6.1,1.7-6.1,3.1,0,1.2.9,1.9,2.5,1.9,1.1,0,2.9-.2,4.1-.3.4,0,.7.3.7.9A.77.77,0,0,1,278.7,109.75Z" transform="translate(0 -0.05)"/><path class="cls-3" d="M287.8,109.45c-.3.2-.7,0-1-.5a.85.85,0,0,1,.2-1.1c2.6-1.2,3.3-2.5,3.3-4a3.63,3.63,0,0,0-3-3.9c-.5,4.7-1.9,8.9-4.1,8.9-1.5,0-2.8-1.9-2.8-4.6a6.15,6.15,0,0,1,6.1-6.1,5.41,5.41,0,0,1,5.5,5.7C292.1,106.35,291.2,107.85,287.8,109.45Zm-5.7-5.1c0,1.5.6,2.5,1.1,2.5,1.1,0,2.2-3.8,2.5-6.8A4.4,4.4,0,0,0,282.1,104.35Z" transform="translate(0 -0.05)"/><path class="cls-3" d="M301.8,109.25c-.5,0-.9-.3-.9-.6v-.2H294c-.4,0-.6-.4-.6-.9s.3-.9.6-.9h6.9v-4.9H294c-.3,0-.6-.3-.6-.9s.3-.9.6-.9h5.8a3.42,3.42,0,0,0,1.1-.1.9.9,0,0,1,.5-.1,1.49,1.49,0,0,1,.6.1,1.63,1.63,0,0,1,.6.3.37.37,0,0,1,.1.3v8.2A.91.91,0,0,1,301.8,109.25Z" transform="translate(0 -0.05)"/><path class="cls-3" d="M307.8,110.05c-.3.2-.7,0-1-.5a.76.76,0,0,1,.2-1.1c3.5-1.7,5.3-3.4,5.8-5.1h-7.9c-.4,0-.6-.3-.6-.8s.3-.8.6-.8h7.5c.4,0,.8-.1,1.1-.1.1,0,.3-.1.4,0,.3.1.4.2.7.6a.86.86,0,0,1,.3.9C314,105.65,312.6,107.65,307.8,110.05Zm5.2-9.9h-6.7c-.3,0-.6-.4-.6-.9s.3-.9.6-.9H313c.3,0,.6.4.6.9S313.3,100.15,313,100.15Z" transform="translate(0 -0.05)"/><path class="cls-3" d="M317.8,108.65c-.2.3-.6.3-1.1,0a.73.73,0,0,1-.3-1,10.51,10.51,0,0,0,1.9-3.3.83.83,0,0,1,1-.4c.5.2.7.6.6.9A17.09,17.09,0,0,1,317.8,108.65Zm9.8-6.2h-4.3v7a.77.77,0,0,1-.8.7c-.5,0-.9-.3-.9-.6v-7.1h-4.4c-.3,0-.6-.3-.6-.8s.3-.8.6-.8h4.4v-2.5q0-.6.9-.6c.5,0,.8.3.8.6v2.5h4.3c.4,0,.6.3.6.8S327.9,102.45,327.6,102.45Zm.6,5.8c-.4.3-.8.3-1,0l-2.3-3.2a.73.73,0,0,1,.3-1,.75.75,0,0,1,1,0l2.2,3.2C328.7,107.55,328.6,108,328.2,108.25Zm-1-8.5a.45.45,0,0,1-.6,0l-.8-1.1a.37.37,0,0,1,.2-.5c.2-.2.4-.1.6,0l.8,1.1C327.5,99.35,327.4,99.55,327.2,99.75Zm1.4-.7c-.2.2-.4.1-.6,0l-.8-1.1a.37.37,0,0,1,.2-.5c.2-.2.4-.1.6,0l.8,1.1A.32.32,0,0,1,328.6,99.05Z" transform="translate(0 -0.05)"/></g><g class="cls-2"><path class="cls-3" d="M68.9,165.25c-2.3,0-4.5-1.4-6.4-5.6-.4-.8.1-1.7,1.2-2.3a1.7,1.7,0,0,1,2.5.5c1,2,2,2.5,2.9,2.5a4.2,4.2,0,0,0,4.2-4.1c0-3.4-2.4-5.4-6.5-5.4a24.14,24.14,0,0,0-7.3,1.4c.1,4.2.1,7.5.1,8.2a17.1,17.1,0,0,0,.1,2.6,3,3,0,0,1-1.9,3,3,3,0,0,1-3.6-.6,40.49,40.49,0,0,0-6.7-6.3,2,2,0,0,1-2.9-1c-.7-1.5-.4-2.8.4-3.4a97,97,0,0,1,9.7-5.6v-6.3a62.06,62.06,0,0,1-7.4.2c-1,0-1.8-1.1-1.9-2.6a2,2,0,0,1,2.2-2.2,55.67,55.67,0,0,0,7.1,0c0-2.5-.1-4.6,0-6.1,0-1,1-1.8,2.6-1.7s2.4,1,2.4,2c-.1,1.5-.1,3.4-.2,5.4,1.5-.2,2.9-.4,4-.6s2,.6,2.1,2.1-.5,2.5-1.5,2.6c-1.3.2-2.9.4-4.6.6v4.8a23.85,23.85,0,0,1,7.2-1.3c7.2,0,11.6,3.6,11.6,10.3A9.57,9.57,0,0,1,68.9,165.25Zm-14.1-10.9a34,34,0,0,0-4.5,2.8,29.08,29.08,0,0,0,3.8,3.4c.4.3.7.1.7-.4Zm21.1-10.5a48.58,48.58,0,0,0-6.3-4.8,2,2,0,0,1-.6-2.8c.7-1.1,1.8-1.7,2.6-1.4,1.6.7,3,1.7,7.4,5,.8.6.9,1.9,0,3.1C78,144.35,76.7,144.55,75.9,143.85Z" transform="translate(0 -0.05)"/><path class="cls-3" d="M95.4,133a67.84,67.84,0,0,1-3.9,10.8,1.59,1.59,0,0,1,1.4,1.8v19.3c0,1.2-.6,1.8-2.3,1.8s-2.3-.6-2.3-1.8v-15.3c-.6.9-1.4,2.6-2.7,2.6-1.6,0-2.2-2-2.2-3.3a2.79,2.79,0,0,1,.6-1.8c2.7-3.4,5.5-9.5,6.8-15.1a2.09,2.09,0,0,1,2.2-1.5c1.2,0,2.6.7,2.6,2.1C95.4,132.65,95.4,132.75,95.4,133Zm23.2,13.2h-7.5v14.4h5.8c1.3,0,2,.6,2,2.5s-.7,2.4-2,2.4H99.4c-1.3,0-2-.6-2-2.4s.6-2.5,2-2.5h6.2v-14.4H97.9c-1.3,0-2-.6-2-2.5s.6-2.5,2-2.5h7.7v-8.8c0-1.4.6-2.2,2.7-2.2s2.7.7,2.7,2.2v8.8h7.5c1.3,0,2,.6,2,2.5S119.9,146.15,118.6,146.15Z" transform="translate(0 -0.05)"/><path class="cls-3" d="M159.2,155.55h-1.4v2a3,3,0,0,1-3,3H144.6v2.3c0,2.6-1.4,3.9-4,3.9h-4.9c-.9,0-1.4-.4-1.4-1.7s.8-1.5,1.2-1.5l2.8.1a1.32,1.32,0,0,0,1.3-1.3v-1.8h-12c-.8,0-1.2-.4-1.2-1.5s.4-1.6,1.2-1.6h12v-2.1H124.8c-.8,0-1.2-.4-1.2-1.5s.4-1.5,1.2-1.5h14.8v-2.1h-12c-.8,0-1.2-.4-1.2-1.5s.4-1.5,1.2-1.5h12v-1.8h-9.4c-1.7,0-2.8-.8-2.8-2.5v-2.8c0-1.7,1.2-2.5,2.8-2.5h9.6v-1.8H126c-1,0-1.4-.4-1.4-1.8s.4-1.8,1.4-1.8h13.8v-.4c0-1.3.6-2,2.4-2s2.5.7,2.5,2v.4h13.7c1,0,1.4.4,1.4,1.8s-.5,1.8-1.4,1.8H144.7v1.8h9.6c1.7,0,2.8.8,2.8,2.5V143c0,1.7-1.2,2.5-2.8,2.5h-9.6v1.8h10.2a3,3,0,0,1,3,3v1.9h1.4c.9,0,1.4.4,1.4,1.7S160.1,155.55,159.2,155.55Zm-19.4-15.3H133c-.5,0-.7.2-.7.7v1c0,.5.2.7.7.7h6.8Zm12.4.7c0-.5-.2-.7-.7-.7h-6.8v2.5h6.8c.5,0,.7-.2.7-.7Zm1,10.2a.9.9,0,0,0-.9-.9h-7.7v2.2h8.6v-1.3Zm0,4h-8.6v2.2h7.7a.9.9,0,0,0,.9-.9v-1.3Z" transform="translate(0 -0.05)"/><path class="cls-3" d="M174.9,132.75a74.36,74.36,0,0,1-4.1,10.9c1.3.1,1.8.8,1.8,1.8v19.4c0,1.2-.6,1.8-2.3,1.8s-2.2-.6-2.2-1.8v-16.1c-.6,1-1.5,2.9-2.8,2.9-1.5,0-2-2-2-3.2a3.08,3.08,0,0,1,.6-1.9,43.15,43.15,0,0,0,6.5-14.7,2.09,2.09,0,0,1,2.2-1.5,2.27,2.27,0,0,1,2.5,2C174.9,132.55,174.9,132.65,174.9,132.75Zm23,32.9a1.73,1.73,0,0,1-1.3-.5c-5-5.2-8.7-13.7-10-23.2a30.76,30.76,0,0,1-4.1,6.8c1.3.1,1.8.7,1.8,1.8v9.6a45.73,45.73,0,0,1,5.5-1.5c.6,0,1.4.4,1.4,1.8a3,3,0,0,1-1.8,2.9c-2.2.7-10.6,3-12.2,3-1.4,0-2-1.4-2-2.6,0-2.5,3.1-2.3,4.8-2.6v-9.3c-.9.9-3.4,3.6-4.7,3.6a2.73,2.73,0,0,1-2.4-2.8,2.24,2.24,0,0,1,.9-1.8,30.32,30.32,0,0,0,9-10.5h-6c-1.2,0-1.8-.6-1.8-2.3s.6-2.3,1.8-2.3h8.4v-3.6c0-1.3.6-2,2.5-2s2.5.7,2.5,2v3.6h8.3c1.2,0,1.8.6,1.8,2.3s-.6,2.3-1.8,2.3h-7.7a49.79,49.79,0,0,0,1.4,7.3l4.6-4.3a1.87,1.87,0,0,1,1-.5c1,0,2.2,1.5,2.2,2.4a1.38,1.38,0,0,1-.6,1.1l-5.9,5.3a26.42,26.42,0,0,0,6.6,9.8,2.09,2.09,0,0,1,.6,1.5A3.18,3.18,0,0,1,197.9,165.65Z" transform="translate(0 -0.05)"/><path class="cls-3" d="M220.5,137.55h-5.4v2.9h3.2a3,3,0,0,1,3,3v6.7a3,3,0,0,1-3,3h-3.2v.8l5.1,3.6a1.7,1.7,0,0,1,.8,1.3c0,.8-1,2.6-2,2.6a2.6,2.6,0,0,1-1-.4l-3-2.5v6.6c0,1.1-.6,1.7-2.1,1.7s-2.1-.6-2.1-1.7v-6.7c-.7,1.2-4,6.4-5.4,6.4-1.2,0-1.9-1.5-1.9-2.5a2,2,0,0,1,.6-1.6,30.45,30.45,0,0,0,5.9-7.4h-2.3a3,3,0,0,1-3-3v-6.7a3,3,0,0,1,3-3h3.1v-2.9h-5.5c-1.1,0-1.7-.5-1.7-2.1s.6-2.1,1.7-2.1h5.5v-1.7c0-1.1.5-1.7,2.1-1.7s2.1.6,2.1,1.7v1.7h5.4c1.1,0,1.7.6,1.7,2.1S221.6,137.55,220.5,137.55Zm-9.1,6.6h-2.2a.9.9,0,0,0-.9.9v3.5a.9.9,0,0,0,.9.9h2.1v-5.3Zm6.3.9a.9.9,0,0,0-.9-.9h-2.1v5.3h2.1a.9.9,0,0,0,.9-.9Zm5.7,21.7a2.55,2.55,0,0,1-2.2-2.2,1.47,1.47,0,0,1,.7-1.2c1.2-.7,4.3-3.5,5.3-3.5a2.16,2.16,0,0,1,2.1,1.9C229.3,163.25,224.3,166.75,223.4,166.75ZM239,135h-5.8l-.8,3h3.9a3,3,0,0,1,3,3v15.7a3,3,0,0,1-3,3h-9.4a3,3,0,0,1-3-3V141a3,3,0,0,1,3-3h1l.9-3h-4.5c-1,0-1.5-.5-1.5-1.9s.5-1.9,1.5-1.9h14.6c1,0,1.6.5,1.6,1.9S240,135,239,135Zm-4,7a.9.9,0,0,0-.9-.9h-5.2a.9.9,0,0,0-.9.9v2.1h7V142Zm0,5.2h-7v3h7Zm0,6.2h-7v2.2a.9.9,0,0,0,.9.9h5.2a.9.9,0,0,0,.9-.9v-2.2Zm3.7,13.5a1.87,1.87,0,0,1-1-.5l-3.6-3.1a1.22,1.22,0,0,1-.6-1,2.94,2.94,0,0,1,2.1-2.2,2.6,2.6,0,0,1,1,.4l3.5,2.8a1.38,1.38,0,0,1,.6,1.1A2.69,2.69,0,0,1,238.7,166.85Z" transform="translate(0 -0.05)"/><path class="cls-3" d="M248.9,165a2.42,2.42,0,0,1-2.6.8c-1.2-.3-2-.9-2.1-1.8-.2-2.5-.6-8.7-.6-16.8a121.8,121.8,0,0,1,1.4-14.7c.1-1,1.2-1.7,2.8-1.5s2.4,1.2,2.2,2.2a97.59,97.59,0,0,0-1.7,13.9c0,5.9,0,8.5.1,9.7,0,.6.4.6.7.2s.8-1.2,1.2-2a1.54,1.54,0,0,1,2.4-.1c.9.8,1.2,1.8.7,2.4A70.21,70.21,0,0,0,248.9,165Zm27-2.4c-1.4-.8-2.7-1.4-4-2-.2,3-2.8,5.5-8,5.5-5.6,0-7.6-3.2-7.6-6s2.8-6,7.2-6c1.1,0,2.2.1,3.3.2-.1-2.6-.3-6.1-.4-9.7a85.45,85.45,0,0,1-8.6.2c-1.1-.1-1.9-1.2-1.9-2.8a2.13,2.13,0,0,1,2.4-2.2,50.31,50.31,0,0,0,7.8,0c-.1-2.8-.2-5.3-.4-6.9-.1-1,.9-1.9,2.4-1.9s2.6.8,2.6,1.8c.1,1.8.2,4.1.3,6.6,1.6-.2,3.2-.5,4.6-.7,1-.2,2.1.7,2.2,2.2s-.6,2.7-1.6,2.8c-1.4.2-3.1.4-4.9.6.2,4.1.3,8.3.4,11.4a57.6,57.6,0,0,1,6.4,2.6,2.21,2.21,0,0,1,.6,3.1C278,162.55,276.8,163.05,275.9,162.55Zm-12.6-4.5c-2,0-2.9,1.1-2.9,2,0,1.3,1.5,2.1,3.2,2.1,2,0,3.3-.6,3.4-3.5A18.83,18.83,0,0,0,263.3,158.05Z" transform="translate(0 -0.05)"/><path class="cls-3" d="M310.8,163.35c-4.8.4-8.9.7-12.8.7-10.3,0-15.4-2.8-15.5-7.5,0-1.6,1.2-3.9,2.5-6.6.4-.8,1.5-1.1,2.7-.6s1.6,1.6,1.2,2.3c-1.2,2-1.6,3.1-1.6,3.9,0,1.8,2.8,3.5,10.6,3.5a115.11,115.11,0,0,0,12.6-1c1.1-.2,2.2.8,2.2,2.4S311.9,163.35,310.8,163.35Zm-2.1-23c-2.7.8-8.1,1.4-20.6.6a2.4,2.4,0,0,1-1.8-2.6c0-1.6,1-2.5,2-2.4,9.7.9,16,.4,19.1-.3a2.14,2.14,0,0,1,2.6,1.8C310.2,139,309.7,140.15,308.7,140.35Z" transform="translate(0 -0.05)"/><path class="cls-3" d="M323.8,166.15c-1,0-1.9-1.1-1.9-2.6s1-2.6,2-2.5c11.2,1,16.5-2.2,16.5-5.6,0-2.2-1.6-4.6-6-4.6a20.14,20.14,0,0,0-13,5.2,2.08,2.08,0,0,1-2.9-.6c-.9-1.1-.9-2.4-.2-3a7.36,7.36,0,0,0,2.5-3.2c.7-2,1.6-4.8,2.6-7.7-2.2,0-4.2.1-5.9,0-1.1-.1-1.9-1.2-1.8-2.9a2.16,2.16,0,0,1,2.5-2.2,58.64,58.64,0,0,0,6.6.3c.5-1.9,1-3.8,1.4-5.5.2-1,1.4-1.7,3-1.5s2.5,1.4,2.2,2.4c-.4,1.5-.9,3-1.3,4.4a90.83,90.83,0,0,0,11.4-1.2c1-.2,2,.7,2,2.2s-.6,2.5-1.6,2.6c-3.5.4-8.4.9-13.3,1.1-1.1,3.3-2.1,6.1-2.6,7.7a18,18,0,0,1,9.4-2.8c6.9.1,10.3,4.7,10.3,8.9C345.4,162.65,338.7,166.55,323.8,166.15Z" transform="translate(0 -0.05)"/><path class="cls-3" d="M359,166.45c-1,.2-2-.5-2.4-1.9s.1-2.5,1.1-2.8c10.4-2.4,12.3-4.6,12.3-6.9,0-1.8-1.7-3.4-5-3.4-4.3,0-9.6,2.9-11.7,6.6a2.41,2.41,0,0,1-2.7,1c-1.3-.2-2.1-1-2.1-1.8,0-8.9.3-13.3,1.3-17.4.2-1,1.4-1.5,2.9-1.2a2.13,2.13,0,0,1,1.8,2.5,65.33,65.33,0,0,0-.9,11,16.81,16.81,0,0,1,11.9-5.6c5.4,0,9.8,3.1,9.8,8.5C375.5,159.45,372.4,163.15,359,166.45Zm7.3-28.3a60.61,60.61,0,0,0-9.3-4,1.76,1.76,0,0,1-1-2.6,2.41,2.41,0,0,1,2.5-1.6,67.16,67.16,0,0,1,10.1,3.8c.9.4,1.2,1.7.6,3.1S367.2,138.65,366.3,138.15Z" transform="translate(0 -0.05)"/></g></g><g id="グループ_4544" data-name="グループ 4544"><path id="パス_6437" data-name="パス 6437" class="cls-3" d="M241.27,47.12a1.38,1.38,0,0,1-.3-.4,4,4,0,0,0-1.2-2.6,17.29,17.29,0,0,0-3.5-3.1,17.17,17.17,0,0,0-6-3.1.22.22,0,0,1-.2-.2,6.45,6.45,0,0,0-3-2.4,45.88,45.88,0,0,0-4.8-1.7,17.44,17.44,0,0,0-7.2-.9.37.37,0,0,1-.3-.1,3.58,3.58,0,0,0-2.2-1.1,13,13,0,0,0-4.4-.1,24.66,24.66,0,0,0-9.3,2.2.3.3,0,0,1-.4,0,3.36,3.36,0,0,0-2.4-.4,19.09,19.09,0,0,0-4.1,1.1,25,25,0,0,0-5.6,3.5,12.42,12.42,0,0,0-3.9,4c-.1.1-.2.1-.3.2a7.07,7.07,0,0,0-2.5,1.1,22,22,0,0,0-5,5.1A8.14,8.14,0,0,0,173,54a21.25,21.25,0,0,0,1,5.6,23.8,23.8,0,0,0,3.4,7.2,29,29,0,0,0,4.8,5.1,30.34,30.34,0,0,0,11.6,6.2,21.1,21.1,0,0,0,4.9.9,89.32,89.32,0,0,0,12.7.6,31,31,0,0,0,4.3-.2c2.4-.3,4.8-.7,7.1-1.1a36.75,36.75,0,0,0,7.1-2.3,25.5,25.5,0,0,0,2.9-1.3,53.36,53.36,0,0,0,6.5-5,19.51,19.51,0,0,0,4.8-6.2c.7-1.5,1.4-2.9,2.1-4.4a5.34,5.34,0,0,0,.4-3.3A14.84,14.84,0,0,0,241.27,47.12Zm3,11.3a25.82,25.82,0,0,1-7.8,10.9,39.19,39.19,0,0,1-3.2,2.5,36.84,36.84,0,0,1-6.9,3.4,40.61,40.61,0,0,1-10.9,2.2,92.93,92.93,0,0,1-11.8.1,44.33,44.33,0,0,1-8.9-1.2,30.17,30.17,0,0,1-15.6-10.1,22.74,22.74,0,0,1-3.6-6.9,21.26,21.26,0,0,1-1-5.5,7.12,7.12,0,0,1,1.2-4.5,19,19,0,0,1,4.9-4.9,3.1,3.1,0,0,1,1.3-.6.69.69,0,0,1,1,.3c0,.1.1.2.1.3a1.18,1.18,0,0,0,1.1,1,.85.85,0,0,0,.7-.8,2.28,2.28,0,0,0-.7-1.9.37.37,0,0,1,0-.6,10.3,10.3,0,0,1,2.6-2.5,26.22,26.22,0,0,1,5.4-3.5,11.9,11.9,0,0,1,4.1-1.1c1-.1,1.3.1,1.6,1.1.1.4.2.9.3,1.3.1.6.5,1,1,.9a1,1,0,0,0,.8-1.1h0c-.1-.5-.2-1.1-.3-1.6-.1-.3,0-.4.2-.5a22.13,22.13,0,0,1,5-1.5,24.25,24.25,0,0,1,6-.4l1.8.3a.66.66,0,0,1,.6.7,7.39,7.39,0,0,1,0,2.1,1,1,0,0,0,.6,1.1.86.86,0,0,0,1.1-.6,3.59,3.59,0,0,0,.2-1.1v-1.2a18.5,18.5,0,0,1,4.1.2,30.48,30.48,0,0,1,6.5,2,23.92,23.92,0,0,1,2.1,1.3,1.24,1.24,0,0,1,.5,1.5l-.3.9c-.1.1-.1.29-.2.39a1,1,0,0,0,.3,1,.87.87,0,0,0,1,0,3.45,3.45,0,0,0,.7-1,5.29,5.29,0,0,0,.4-1.2,6.94,6.94,0,0,1,1.3.5,23.44,23.44,0,0,1,6.8,5,1.76,1.76,0,0,1,.4.5,1.36,1.36,0,0,1,.1,1.7c-.5.8-.9,1.61-1.4,2.3,0,.1-.1.1-.1.2a.92.92,0,0,0,.1,1.21.94.94,0,0,0,1.2,0c.2-.21.4-.3.5-.6.4-.61.8-1.3,1.2-1.9.2.2.4.29.6.5a12.82,12.82,0,0,1,3.1,4.6,4.18,4.18,0,0,0,.4,1,5.51,5.51,0,0,1-.2,3.8Z" transform="translate(0 -0.05)"/><path id="パス_6438" data-name="パス 6438" class="cls-3" d="M225.27,44.12a1.61,1.61,0,0,0-.7-.4c-1.6-.6-3.3-1.3-4.9-1.9a27.59,27.59,0,0,0-8-1.5,36.41,36.41,0,0,0-9.3.6,41.61,41.61,0,0,0-10.9,3.3,24.34,24.34,0,0,0-9.5,7.9,4.88,4.88,0,0,0-.3.7c0,.5.1.7.5.9a.76.76,0,0,0,.9-.1,1.38,1.38,0,0,0,.3-.4,24.22,24.22,0,0,1,5.3-5.3,25.54,25.54,0,0,1,5.9-3.1,40.38,40.38,0,0,1,10.8-2.5,33,33,0,0,1,14.3,1.4c1.6.6,3.2,1.3,4.7,1.9a.89.89,0,0,0,1.1-.2C225.77,44.82,225.67,44.32,225.27,44.12Z" transform="translate(0 -0.05)"/></g></svg>