<svg id="グループ_4476" data-name="グループ 4476" xmlns="http://www.w3.org/2000/svg" width="197.855" height="40.092" viewBox="0 0 197.855 40.092">
  <defs>
    <style>
      .cls-1 {
        fill: #fff;
      }
    </style>
  </defs>
  <path id="パス_6042" data-name="パス 6042" class="cls-1" d="M501.155,1094.938c0,1.357-.192,2.715-.306,4.072-.185,2.176-1.481,3.922-2.3,5.85a16.987,16.987,0,0,1-1.887,3.587c-1.244,1.656-2.441,3.377-4.661,4.049-1.525.462-2.873,1.474-4.607,1.2-1.429-.227-2.876-.341-4.311-.535-2.391-.322-4.021-2.1-5.245-3.737a17.9,17.9,0,0,1-3.878-9.793c-.09-1.721-.406-3.435-.414-5.153a15.554,15.554,0,0,1,.517-3.885,25.443,25.443,0,0,1,1.56-4.507c1.185-2.517,2.331-5.1,4.765-6.76,1.156-.788,2.192-1.918,3.464-2.327a15.08,15.08,0,0,1,4.3-.194c.287,0,.6.223.858.163,1.909-.44,3.423.506,4.938,1.387a17.776,17.776,0,0,1,5.562,5.689,13.146,13.146,0,0,1,1.136,3.219A64.952,64.952,0,0,1,501.155,1094.938ZM490,1092.828c-.184-1.429-.52-2.492-2.308-2.5a3.055,3.055,0,0,0-1.307.751c-1.308,2.109-1.045,4.691.154,5.8a2.045,2.045,0,0,0,1.945.292C490.626,1095.942,490.115,1092.867,490,1092.828Z" transform="translate(-303.3 -1074.609)"/>
  <path id="パス_6043" data-name="パス 6043" class="cls-1" d="M223.419,1105.081c-.65,2.073-.881,3.815-2.991,4.71a4.281,4.281,0,0,1-3.18-.078c-2.2-.893-3.081.034-5.226.389a19.57,19.57,0,0,1-4.771.571c-1.987-.175-3.425-1.544-4.912-2.909a24.759,24.759,0,0,1-4.258-5.334,16.15,16.15,0,0,1-2.284-9.465,18.2,18.2,0,0,1,1.176-6.156,41.046,41.046,0,0,1,3.941-8.022,12.7,12.7,0,0,1,8.044-5.323,8.784,8.784,0,0,1,6.576,1.163c.994.595,2.631,1.594,3.094,2.733a5.412,5.412,0,0,1,.52,3.539,22.557,22.557,0,0,1-.88,2.782c-1.136,1.539-3.519,1.766-4.707,2.967-1.736,1.755-1.417,3.263-2.021,5.891a7.246,7.246,0,0,0,1.579,6.3c.319.4,1.744.3,2.384-.056a2.379,2.379,0,0,0,.675-2.025c-.188-1.187-.607-2.277-.151-3.535a4.138,4.138,0,0,1,3.212-2.908c1.3-.276,2.592-.585,3.9-.817.984-.174,2.675,1.174,2.989,2.155a5.165,5.165,0,0,1-.171,3.546C225.54,1096.3,224.078,1102.976,223.419,1105.081Z" transform="translate(-195.781 -1073.259)"/>
  <path id="パス_6044" data-name="パス 6044" class="cls-1" d="M306.4,1095.205a38.354,38.354,0,0,1,1.353-6.571c1.114-2.917,2.227-5.871,4.631-8.184,1.723-1.658,3.286-3.416,5.568-4.3,3.09-1.2,6.318-1.882,9.345-.225a8.957,8.957,0,0,1,4.715,5.317,23.829,23.829,0,0,0,.8,2.279,18.271,18.271,0,0,1,1.216,8.227q-.113,1.458-.227,2.916c-.015.188-.093.374-.092.561.007,2.917-1.344,5.488-2.535,7.952a12.552,12.552,0,0,1-7.845,7.057l-.281.039c-2.667.018-5.389.376-7.984-.048a9.422,9.422,0,0,1-6.193-3.781C306.351,1103.058,306.129,1099.355,306.4,1095.205Zm14.224.213a6.535,6.535,0,0,0,1.448-5.538c-.026-.125-.058-.248-.093-.37a1.1,1.1,0,0,0-.232-.4,1.215,1.215,0,0,0-1.959.154l-.006.01c-.471.773-.843,1.606-1.307,2.385-.558.937.018,3.522.981,3.964a1.172,1.172,0,0,0,1.057-.07Z" transform="translate(-238.567 -1073.908)"/>
  <path id="パス_6045" data-name="パス 6045" class="cls-1" d="M385.457,1077.111c2.68.062,3.809,1.1,4.732,3.454a8.725,8.725,0,0,1-.207,6.757,18.31,18.31,0,0,1-1.793,3.995c-1.106,1.939-2.392,3.774-3.529,5.7a3.07,3.07,0,0,0-.563,1.931c.077.346,1.056.55,1.658.712,1.06.286,2.162.425,3.21.746,1.578.484,1.733,2.169,1.978,3.285.591,2.683.115,5.45-2.425,7.022-1.98,1.227-4.017,2.544-6.532,2.7a80.86,80.86,0,0,1-8.28.251c-1.426-.3-3.184-.139-4.213-.934-1.356-1.047-3.182-1.982-3.442-4.095a13.8,13.8,0,0,1-.534-2.691,14.147,14.147,0,0,1,.959-3.493c1.123-3.049,4.971-6.994,6.974-9.581,1.192-1.539,1.467-2.985-.467-2.827-7.43.605-8.292-5.539-7.151-8.475a4.28,4.28,0,0,1,1.3-1.761c1.532-1.183,2.574-1.927,7.981-2.392C374.291,1077.474,381.065,1077.01,385.457,1077.111Z" transform="translate(-261.447 -1074.744)"/>
  <path id="パス_6046" data-name="パス 6046" class="cls-1" d="M445.254,1096.552a30.316,30.316,0,0,1,.713,4.355c.063,2.67.987,6.43-.449,8.877-.8,1.355-4.412,3.221-5.9,2.812a3.252,3.252,0,0,1-1.548-1.1,55.262,55.262,0,0,1-2.995-5.938c-.665-1.324-1.3-1.069-3.836-.636-.473.081-.883.794-1.09,1.307-.956,2.373-.661,3.6-2.419,5.341-1.375,1.362-6.2,1.3-7.438-.468a4.506,4.506,0,0,0-.368-.6,4.943,4.943,0,0,1-1.011-4.887c.488-1.668.606-3.441.956-5.153.242-1.187.6-2.349.909-3.523.336-1.294.571-2.623,1.018-3.876.973-2.722,2.014-5.421,3.1-8.1.548-1.345,1.261-2.624,1.9-3.929,1.332-2.7,5.858-3.91,8.651-2.824a9.357,9.357,0,0,1,5.457,5.711c.77,1.887,1.608,3.746,2.391,5.628a28.526,28.526,0,0,1,1.281,3.362c.325,1.186.446,2.427.656,3.645Zm-11.469-5.639a.623.623,0,0,0-1.041.21,38.079,38.079,0,0,0-1.207,3.69c-.177.728-.137,1.863.953,1.844.916-.017,2.839-.1,2.824-.669A6.752,6.752,0,0,0,433.785,1090.913Z" transform="translate(-282.059 -1075.021)"/>
  <path id="パス_6047" data-name="パス 6047" class="cls-1" d="M277.768,1091.826c-.481,1.605-.931,3.228-1.547,4.782-.851,2.145-1.829,4.24-2.781,6.344-1.068,2.362-2.12,4.732-3.28,7.048a7.16,7.16,0,0,1-1.551,1.731c-.393.381-.928.623-1.3,1.021a3.576,3.576,0,0,1-5.017.176c-.46-.5-1.334-1.251-1.4-1.943a9.324,9.324,0,0,1,.138-3.379,24.751,24.751,0,0,1,1.38-3.38c.9-3.1.042-3.2-.552-4.345a36.962,36.962,0,0,0-2.828-3.518c-1.483-1.939-2.555-2.144-3.592-4.425s-1.443-3.991-2.133-5.853a9.071,9.071,0,0,1-.441-3.1c.51-1.756.963-3.652,2.736-4.64,1.968-1.1,3.146-1.6,5.155-.4a17.073,17.073,0,0,1,2.631,2.513c1.024,1.281,1.878,1.651,2.542,2.661a12.122,12.122,0,0,0,1.793,2.184c.189.2.92,1.357,1.863-1.149.185-.491.759-1.794,1.1-2.69,1.586-3.587,1.176-3.725,2.345-5.381a3.964,3.964,0,0,1,6.247.1,6.73,6.73,0,0,1,.95,3.432C280.329,1080.776,278.623,1088.972,277.768,1091.826Z" transform="translate(-217.864 -1073.781)"/>
</svg>
