<svg xmlns="http://www.w3.org/2000/svg" width="258.867" height="52.455" viewBox="0 0 258.867 52.455">
  <defs>
    <style>
      .cls-1 {
        fill: #dc000c;
      }
    </style>
  </defs>
  <g id="グループ_4474" data-name="グループ 4474" transform="translate(-195.781 -1073.259)">
    <path id="パス_6042" data-name="パス 6042" class="cls-1" d="M509.67,1100.548c0,1.776-.251,3.552-.4,5.328-.242,2.847-1.938,5.131-3.011,7.653a22.224,22.224,0,0,1-2.469,4.693c-1.628,2.167-3.194,4.419-6.1,5.3-2,.6-3.759,1.929-6.028,1.568-1.87-.3-3.763-.446-5.641-.7-3.128-.422-5.261-2.754-6.862-4.89a23.42,23.42,0,0,1-5.074-12.812c-.118-2.252-.531-4.494-.542-6.743a20.348,20.348,0,0,1,.677-5.083,33.283,33.283,0,0,1,2.041-5.9c1.551-3.293,3.05-6.674,6.234-8.844,1.512-1.031,2.868-2.509,4.532-3.044,1.724-.555,3.736-.229,5.623-.253.375,0,.784.292,1.123.213,2.5-.575,4.479.662,6.46,1.815a23.26,23.26,0,0,1,7.276,7.443c.809,1.191,1.009,2.8,1.486,4.212A84.96,84.96,0,0,1,509.67,1100.548Zm-14.6-2.762c-.241-1.869-.681-3.261-3.02-3.265a4,4,0,0,0-1.71.983c-1.711,2.759-1.367,6.138.2,7.588a2.676,2.676,0,0,0,2.544.382C495.893,1101.86,495.225,1097.837,495.07,1097.786Z" transform="translate(-55.022 -0.691)"/>
    <path id="パス_6043" data-name="パス 6043" class="cls-1" d="M231.942,1114.894c-.85,2.713-1.153,4.992-3.913,6.162a5.6,5.6,0,0,1-4.161-.1c-2.88-1.168-4.03.045-6.837.509a25.611,25.611,0,0,1-6.243.747c-2.6-.229-4.481-2.02-6.427-3.806a32.385,32.385,0,0,1-5.571-6.978,21.13,21.13,0,0,1-2.988-12.383,23.813,23.813,0,0,1,1.539-8.054,53.7,53.7,0,0,1,5.156-10.5,16.621,16.621,0,0,1,10.524-6.965,11.492,11.492,0,0,1,8.6,1.522c1.3.778,3.443,2.086,4.048,3.575a7.081,7.081,0,0,1,.681,4.63,29.522,29.522,0,0,1-1.152,3.64c-1.486,2.014-4.6,2.31-6.159,3.881-2.272,2.3-1.854,4.269-2.644,7.708a9.481,9.481,0,0,0,2.067,8.238c.417.524,2.281.4,3.119-.073a3.114,3.114,0,0,0,.884-2.65c-.246-1.553-.794-2.979-.2-4.625a5.414,5.414,0,0,1,4.2-3.8c1.7-.361,3.391-.766,5.1-1.068,1.288-.229,3.5,1.536,3.911,2.819a6.758,6.758,0,0,1-.224,4.64C234.716,1103.412,232.8,1112.14,231.942,1114.894Z" transform="translate(0 0)"/>
    <path id="パス_6044" data-name="パス 6044" class="cls-1" d="M306.432,1101.455c.52-2.681.7-5.807,1.771-8.6,1.458-3.816,2.913-7.682,6.059-10.707,2.255-2.169,4.3-4.469,7.285-5.63,4.043-1.573,8.267-2.462,12.227-.294,2.733,1.5,5.2,3.583,6.168,6.957a31.189,31.189,0,0,0,1.051,2.982,23.905,23.905,0,0,1,1.591,10.764q-.148,1.908-.3,3.815c-.019.246-.121.489-.12.734.009,3.816-1.759,7.18-3.317,10.4-2.077,4.3-5.341,7.829-10.264,9.232l-.367.051c-3.489.024-7.051.492-10.447-.063a12.327,12.327,0,0,1-8.1-4.946C306.363,1111.73,306.072,1106.884,306.432,1101.455Zm18.611.278a8.55,8.55,0,0,0,1.895-7.246q-.052-.245-.122-.484a1.446,1.446,0,0,0-.3-.529,1.59,1.59,0,0,0-2.563.2l-.008.013c-.617,1.011-1.1,2.1-1.71,3.12-.731,1.226.024,4.608,1.284,5.186a1.534,1.534,0,0,0,1.382-.091Z" transform="translate(-21.895 -0.332)"/>
    <path id="パス_6045" data-name="パス 6045" class="cls-1" d="M391.636,1077.115c3.507.081,4.984,1.436,6.192,4.519a11.416,11.416,0,0,1-.27,8.841,23.956,23.956,0,0,1-2.346,5.227c-1.447,2.537-3.129,4.938-4.617,7.454a4.016,4.016,0,0,0-.736,2.527c.1.453,1.382.719,2.169.932,1.387.375,2.829.556,4.2.977,2.064.633,2.267,2.837,2.589,4.3.773,3.511.15,7.131-3.173,9.187-2.59,1.6-5.256,3.329-8.546,3.539-1.26.08-9.475.616-10.833.329-1.865-.395-4.165-.182-5.512-1.222-1.775-1.37-4.163-2.593-4.5-5.358-.146-1.189-.806-2.38-.7-3.52a18.519,18.519,0,0,1,1.255-4.571c1.47-3.989,6.5-9.151,9.125-12.535,1.56-2.014,1.92-3.905-.611-3.7-9.721.792-10.849-7.247-9.357-11.089a5.6,5.6,0,0,1,1.7-2.3c2-1.549,3.368-2.521,10.443-3.13C377.026,1077.59,385.89,1076.983,391.636,1077.115Z" transform="translate(-33.604 -0.76)"/>
    <path id="パス_6046" data-name="パス 6046" class="cls-1" d="M453.451,1102.33a39.671,39.671,0,0,1,.933,5.7c.082,3.494,1.292,8.413-.588,11.615-1.041,1.772-5.773,4.214-7.725,3.679a4.256,4.256,0,0,1-2.026-1.442c-1.073-1.358-3.146-6.232-3.918-7.769-.87-1.732-1.7-1.4-5.018-.833-.618.106-1.156,1.038-1.427,1.71-1.25,3.105-.864,4.711-3.165,6.989-1.8,1.781-8.107,1.7-9.731-.613a5.927,5.927,0,0,0-.481-.784,6.466,6.466,0,0,1-1.322-6.394c.638-2.182.793-4.5,1.251-6.742.317-1.553.791-3.074,1.189-4.61.439-1.693.747-3.431,1.332-5.071,1.273-3.561,2.635-7.093,4.062-10.6.717-1.76,1.65-3.433,2.492-5.141,1.743-3.535,7.664-5.115,11.319-3.7,3.717,1.444,5.738,4.035,7.14,7.472,1.007,2.469,2.1,4.9,3.128,7.364a37.306,37.306,0,0,1,1.676,4.4c.426,1.551.584,3.176.859,4.768Zm-15.006-7.378a.815.815,0,0,0-1.362.275,49.777,49.777,0,0,0-1.58,4.828c-.232.952-.18,2.438,1.247,2.412,1.2-.022,3.714-.131,3.694-.875A8.835,8.835,0,0,0,438.445,1094.953Z" transform="translate(-44.152 -0.902)"/>
    <path id="パス_6047" data-name="パス 6047" class="cls-1" d="M285.458,1097.135c-.629,2.1-1.218,4.223-2.024,6.257-1.113,2.807-2.394,5.547-3.638,8.3-1.4,3.09-2.774,6.192-4.291,9.222a9.375,9.375,0,0,1-2.029,2.265c-.515.5-1.214.815-1.7,1.335-1.679,1.8-4.91,2.023-6.564.23-.6-.651-1.746-1.638-1.829-2.542a12.2,12.2,0,0,1,.18-4.422,32.4,32.4,0,0,1,1.805-4.423c1.173-4.061.055-4.192-.723-5.686-.646-1.24-2.838-3.476-3.7-4.6-1.94-2.536-3.343-2.805-4.7-5.79s-1.888-5.221-2.791-7.657a11.867,11.867,0,0,1-.577-4.053c.667-2.3,1.26-4.779,3.58-6.07,2.575-1.434,4.116-2.1,6.745-.526a22.325,22.325,0,0,1,3.443,3.288c1.34,1.676,2.457,2.159,3.326,3.481a15.867,15.867,0,0,0,2.346,2.857c.248.26,1.2,1.775,2.437-1.5.241-.642.993-2.346,1.444-3.52,2.075-4.694,1.538-4.873,3.068-7.04a5.186,5.186,0,0,1,8.173.131,8.807,8.807,0,0,1,1.243,4.49C288.808,1082.678,286.577,1093.4,285.458,1097.135Z" transform="translate(-11.301 -0.267)"/>
  </g>
</svg>
