<svg xmlns="http://www.w3.org/2000/svg" width="82.996" height="612.325" viewBox="0 0 82.996 612.325">
  <defs>
    <style>
      .cls-1 {
        fill: #dc000c;
      }
    </style>
  </defs>
  <g id="グループ_4509" data-name="グループ 4509" transform="translate(20738.768 -9017.246)">
    <path id="パス_6042" data-name="パス 6042" class="cls-1" d="M547.371,1125.385c0,3.63-.513,7.26-.819,10.888-.495,5.818-3.961,10.486-6.154,15.64a45.413,45.413,0,0,1-5.046,9.59c-3.327,4.428-6.527,9.03-12.463,10.826-4.077,1.234-7.681,3.941-12.319,3.2-3.822-.608-7.691-.911-11.527-1.429-6.393-.862-10.752-5.627-14.023-9.993-5.659-7.552-9.851-16.273-10.368-26.182-.241-4.6-1.085-9.184-1.108-13.779a41.586,41.586,0,0,1,1.383-10.388,68.017,68.017,0,0,1,4.171-12.052c3.169-6.73,6.232-13.638,12.74-18.074,3.091-2.107,5.86-5.128,9.262-6.221,3.523-1.134,7.635-.469,11.491-.518.767-.008,1.6.6,2.294.436,5.1-1.175,9.152,1.352,13.2,3.709,6.337,3.685,10.855,9.3,14.87,15.211,1.654,2.434,2.062,5.713,3.037,8.607C546.3,1104.861,547.374,1118.547,547.371,1125.385Zm-29.835-5.644c-.493-3.82-1.391-6.663-6.172-6.673a8.166,8.166,0,0,0-3.5,2.009c-3.5,5.637-2.794,12.543.411,15.506a5.468,5.468,0,0,0,5.2.782C519.217,1128.068,517.851,1119.846,517.535,1119.741Z" transform="translate(-21203.143 8453.913)"/>
    <path id="パス_6043" data-name="パス 6043" class="cls-1" d="M269.678,1158.344c-1.737,5.544-2.357,10.2-8,12.592a11.443,11.443,0,0,1-8.5-.21c-5.885-2.388-8.236.092-13.972,1.041-4.236.7-8.581,1.9-12.758,1.527-5.313-.467-9.157-4.128-13.133-7.778a66.188,66.188,0,0,1-11.385-14.261c-4.808-7.745-6.444-16.055-6.106-25.306a48.663,48.663,0,0,1,3.145-16.46c2.951-7.392,6.078-14.932,10.537-21.448a33.967,33.967,0,0,1,21.507-14.233,23.485,23.485,0,0,1,17.582,3.11c2.658,1.59,7.035,4.262,8.272,7.306,1.436,3.527,1.847,4.105,1.391,9.462a60.31,60.31,0,0,1-2.353,7.438c-3.037,4.115-9.408,4.721-12.586,7.932-4.643,4.692-3.789,8.723-5.4,15.752-1.445,6.288.395,12.017,4.223,16.835.852,1.072,4.662.81,6.375-.149,1.272-.714,2.081-3.664,1.806-5.414-.5-3.174-1.622-6.088-.4-9.451,1.537-4.251,4.217-6.847,8.587-7.774,3.473-.737,6.93-1.565,10.424-2.183,2.632-.467,7.153,3.14,7.992,5.76a13.811,13.811,0,0,1-.457,9.482C275.348,1134.878,271.441,1152.715,269.678,1158.344Z" transform="translate(-20934.549 7943.987)"/>
    <path id="パス_6044" data-name="パス 6044" class="cls-1" d="M306.556,1129.13c1.062-5.478,1.44-11.866,3.618-17.569,2.979-7.8,5.954-15.7,12.383-21.881,4.608-4.433,8.787-9.133,14.887-11.506,8.263-3.215,16.894-5.031,24.986-.6,5.585,3.056,10.618,7.322,12.605,14.216a63.741,63.741,0,0,0,2.147,6.095,48.852,48.852,0,0,1,3.251,22q-.3,3.9-.608,7.8c-.039.5-.247,1-.246,1.5.018,7.8-3.594,14.672-6.778,21.261-4.244,8.784-10.914,16-20.976,18.867l-.75.1c-7.13.049-14.41,1-21.348-.13a25.189,25.189,0,0,1-16.558-10.108C306.415,1150.127,305.821,1140.224,306.556,1129.13Zm38.033.569a17.473,17.473,0,0,0,3.872-14.808q-.106-.5-.249-.99a2.953,2.953,0,0,0-.619-1.08,3.248,3.248,0,0,0-5.237.413l-.016.026c-1.26,2.066-2.255,4.3-3.494,6.376-1.493,2.505.049,9.416,2.624,10.6.783.359,2.379.331,2.825-.187Z" transform="translate(-21041.33 8151.397)"/>
    <path id="パス_6045" data-name="パス 6045" class="cls-1" d="M418.995,1077.135c7.166.166,10.185,2.935,12.653,9.235a23.329,23.329,0,0,1-.552,18.067,48.961,48.961,0,0,1-4.793,10.681c-2.958,5.184-6.394,10.092-9.434,15.232-.913,1.544-1.845,3.614-1.5,5.164.2.926,2.824,1.47,4.433,1.9,2.835.765,5.782,1.137,8.582,2,4.218,1.293,4.633,5.8,5.29,8.782,1.58,7.175.306,14.572-6.485,18.775-5.293,3.28-10.741,6.8-17.464,7.232-2.574.164-19.362,1.259-22.138.672-3.812-.806-8.512-.372-11.265-2.5-3.627-2.8-8.507-5.3-9.2-10.949-.3-2.43-1.647-4.864-1.429-7.194a37.843,37.843,0,0,1,2.565-9.341c3-8.151,13.292-18.7,18.648-25.617,3.187-4.115,3.923-7.981-1.249-7.56-19.865,1.619-22.171-14.81-19.121-22.661a11.444,11.444,0,0,1,3.479-4.708c4.1-3.165,6.883-5.152,21.34-6.4C389.138,1078.105,407.251,1076.865,418.995,1077.135Z" transform="translate(-21095.02 8250.241)"/>
    <path id="パス_6046" data-name="パス 6046" class="cls-1" d="M489.748,1127.917c.67,3.881,1.816,7.75,1.908,11.643.167,7.14,2.64,17.193-1.2,23.736-2.127,3.622-11.8,8.612-15.786,7.519a8.7,8.7,0,0,1-4.14-2.946c-2.193-2.774-6.429-12.735-8.007-15.876-1.778-3.54-3.477-2.858-10.255-1.7-1.263.216-2.361,2.122-2.915,3.5-2.555,6.345-1.767,9.628-6.468,14.282-3.676,3.64-16.568,3.482-19.886-1.252a12.1,12.1,0,0,0-.983-1.6c-3.359-3.425-4.033-8.517-2.7-13.068,1.3-4.459,1.621-9.2,2.557-13.779.647-3.174,1.617-6.281,2.43-9.421.9-3.459,1.526-7.012,2.722-10.364,2.6-7.278,5.385-14.5,8.3-21.653,1.465-3.6,3.371-7.016,5.093-10.506,3.563-7.224,15.662-10.454,23.131-7.552,7.6,2.951,11.727,8.246,14.592,15.27,2.058,5.046,4.3,10.016,6.393,15.049a76.245,76.245,0,0,1,3.425,8.989c.87,3.17,1.193,6.49,1.755,9.744Zm-30.666-15.077a1.665,1.665,0,0,0-2.783.562,101.761,101.761,0,0,0-3.228,9.865c-.474,1.945-.367,4.982,2.548,4.929,2.448-.044,7.591-.267,7.55-1.788C463.844,1123.8,462.767,1116.767,459.082,1112.841Z" transform="translate(-21150.082 8353.585)"/>
    <path id="パス_6047" data-name="パス 6047" class="cls-1" d="M319.508,1120.644c-1.285,4.292-2.489,8.63-4.136,12.786-2.275,5.736-4.892,11.335-7.435,16.961-2.856,6.314-5.669,12.653-8.769,18.846-.9,1.789-2.653,3.186-4.146,4.628-1.052,1.019-2.481,1.665-3.474,2.728-3.432,3.676-10.034,4.135-13.415.471-1.229-1.331-3.568-3.346-3.738-5.195-.482-5.216-.185-5.164.369-9.036a66.223,66.223,0,0,1,3.689-9.038c2.4-8.3.111-8.566-1.477-11.619-1.319-2.535-5.8-7.1-7.561-9.405-3.964-5.183-6.832-5.732-9.6-11.832s-3.858-10.67-5.7-15.649c-.585-1.578-1.595-6.853-1.18-8.282,1.363-4.7,2.575-9.765,7.315-12.405,5.262-2.93,8.412-4.285,13.784-1.075,1.652.986,5.788,5.16,7.035,6.719,2.738,3.425,5.021,4.413,6.8,7.114a32.422,32.422,0,0,0,4.8,5.839c.506.532,2.46,3.628,4.98-3.073.493-1.313,2.029-4.8,2.951-7.193,4.241-9.592,3.143-9.959,6.27-14.387,3.471-4.916,12.12-5.67,16.7.267,1.811,2.343,2.279,6.031,2.54,9.175C326.355,1091.1,321.794,1113.012,319.508,1120.644Z" transform="translate(-20987.348 8044.742)"/>
  </g>
</svg>
