<svg xmlns="http://www.w3.org/2000/svg" width="89.846" height="36.536" viewBox="0 0 89.846 36.536">
  <defs>
    <style>
      .cls-1 {
        fill: #dc000c;
      }
    </style>
  </defs>
  <g id="グループ_4560" data-name="グループ 4560" transform="translate(-160.767 -701.57)">
    <path id="パス_6450" data-name="パス 6450" class="cls-1" d="M500.651,1094.606c0,1.333-.188,2.666-.3,4-.182,2.136-1.454,3.85-2.259,5.743a16.677,16.677,0,0,1-1.853,3.521c-1.221,1.626-2.4,3.315-4.576,3.975-1.5.453-2.82,1.447-4.523,1.176-1.4-.223-2.824-.334-4.232-.525-2.347-.316-3.948-2.066-5.149-3.669a17.573,17.573,0,0,1-3.807-9.613c-.088-1.69-.4-3.372-.407-5.059a15.267,15.267,0,0,1,.508-3.814,24.969,24.969,0,0,1,1.531-4.425c1.164-2.471,2.288-5.007,4.678-6.636,1.135-.774,2.152-1.883,3.4-2.284a14.814,14.814,0,0,1,4.219-.19c.282,0,.588.219.842.16,1.874-.432,3.361.5,4.847,1.362a17.453,17.453,0,0,1,5.46,5.585,12.911,12.911,0,0,1,1.115,3.16A63.76,63.76,0,0,1,500.651,1094.606Zm-10.955-2.072c-.181-1.4-.511-2.447-2.266-2.45a3,3,0,0,0-1.283.738c-1.284,2.07-1.026,4.605.151,5.693a2.007,2.007,0,0,0,1.909.287C490.313,1095.591,489.812,1092.572,489.7,1092.534Z" transform="translate(-250.037 -375.177)"/>
    <path id="パス_6451" data-name="パス 6451" class="cls-1" d="M222.752,1104.313c-.634,2.023-.86,3.723-2.919,4.6a4.177,4.177,0,0,1-3.1-.077c-2.148-.872-3.006.033-5.1.38a19.1,19.1,0,0,1-4.656.557c-1.939-.17-3.342-1.507-4.793-2.839a24.154,24.154,0,0,1-4.155-5.2,15.76,15.76,0,0,1-2.229-9.236,17.76,17.76,0,0,1,1.148-6.007,40.059,40.059,0,0,1,3.846-7.828,12.4,12.4,0,0,1,7.85-5.195,8.572,8.572,0,0,1,6.417,1.135c.97.58,2.568,1.556,3.019,2.667a5.281,5.281,0,0,1,.508,3.453,22.012,22.012,0,0,1-.859,2.715c-1.108,1.5-3.434,1.723-4.594,2.895-1.694,1.713-1.383,3.184-1.972,5.749a7.071,7.071,0,0,0,1.541,6.145c.311.391,1.7.3,2.327-.054a2.322,2.322,0,0,0,.659-1.976c-.184-1.159-.592-2.222-.148-3.449a4.038,4.038,0,0,1,3.134-2.837c1.267-.269,2.529-.571,3.8-.8.961-.171,2.611,1.146,2.917,2.1a5.041,5.041,0,0,1-.167,3.461C224.821,1095.749,223.4,1102.259,222.752,1104.313Z" transform="translate(-35.014 -371.689)"/>
    <path id="パス_6452" data-name="パス 6452" class="cls-1" d="M385.091,1077.111c2.631.061,3.74,1.078,4.646,3.391a8.566,8.566,0,0,1-.2,6.634,17.98,17.98,0,0,1-1.76,3.922c-1.086,1.9-2.348,3.705-3.464,5.593a3.013,3.013,0,0,0-.552,1.9c.075.34,1.037.54,1.628.7,1.041.281,2.123.417,3.151.733,1.549.475,1.7,2.129,1.942,3.225.58,2.634.112,5.35-2.381,6.894-1.944,1.2-3.944,2.5-6.412,2.656a79.486,79.486,0,0,1-8.128.247c-1.4-.3-3.125-.137-4.136-.917-1.332-1.028-3.123-1.945-3.379-4.02a13.546,13.546,0,0,1-.525-2.641,13.9,13.9,0,0,1,.942-3.43c1.1-2.993,4.88-6.866,6.847-9.406,1.17-1.511,1.44-2.93-.459-2.776-7.294.594-8.14-5.438-7.021-8.32a4.2,4.2,0,0,1,1.277-1.729c1.5-1.162,2.527-1.892,7.835-2.349C374.128,1077.467,380.779,1077.011,385.091,1077.111Z" transform="translate(-170.956 -375.316)"/>
  </g>
</svg>
