<svg xmlns="http://www.w3.org/2000/svg" width="114.075" height="61.609" viewBox="0 0 114.075 61.609">
  <defs>
    <style>
      .cls-1 {
        fill: #fff;
      }
    </style>
  </defs>
  <g id="グループ_4487" data-name="グループ 4487" transform="translate(-974.001 -832)">
    <g id="グループ_4472" data-name="グループ 4472" transform="translate(974.001 832)">
      <path id="パス_6032" data-name="パス 6032" class="cls-1" d="M360.553,980.557c.292.008.844-.028.907-.518.092-.565-.845-.7-.959-.671-.253.063-.707.026-.762.606C359.74,980.152,359.9,980.541,360.553,980.557Z" transform="translate(-301.732 -939.118)"/>
      <path id="パス_6033" data-name="パス 6033" class="cls-1" d="M251.181,855.847a33.319,33.319,0,0,0-1.394-3.651,9.514,9.514,0,0,0-1.207-1.753c-.444-.579-.909-1.146-1.406-1.681a11.759,11.759,0,0,0-1.97-1.935,22.738,22.738,0,0,0-2.93-1.386c-.231-.108-.428-.341-.662-.378-.429-.068-1.006-.206-1.279,0-.355.272-.436.876-.7,1.3-.688,1.088-1.078,2.465-2.558,2.822a.709.709,0,0,1-.611-.209c-.586-.864.029-1.659.406-2.288a8.271,8.271,0,0,0,1.512-4.231,1.358,1.358,0,0,0-.151-.61,6.459,6.459,0,0,0-2.532-2.288c-.734-.471-1.446-.976-2.17-1.462a13.541,13.541,0,0,0-1.408-.916c-.761-.383-1.549-.719-2.343-1.03a19.939,19.939,0,0,0-2.675-.936c-1.092-.256-2.222-.343-3.332-.529a10.268,10.268,0,0,1-1.149-.338c-.6.236-.73.709-.395,1.38a.948.948,0,0,1,.023.593c-.3,1.248-.571,2.5-.94,3.731a3.433,3.433,0,0,1-.827,1.447,1.5,1.5,0,0,1-1.167.148.626.626,0,0,1-.446-.844,13.775,13.775,0,0,0,.543-1.549,12.188,12.188,0,0,0,.586-4.164,7.161,7.161,0,0,0-.361-1.644,1.808,1.808,0,0,0-.8-.965,22.957,22.957,0,0,0-3.985-1.38,10.432,10.432,0,0,0-3.783-.277,24.546,24.546,0,0,1-4.116-.039,20.519,20.519,0,0,0-3.154-.005c-1.313.182-2.589.611-3.891.887-.506.107-.539.428-.483.8a6.1,6.1,0,0,0,.293,1.115,6.574,6.574,0,0,1,.124,3.356c-.133.787-.861,1.281-1.443.906a1.956,1.956,0,0,1-.637-1.25c-.12-.744,0-1.527-.122-2.27a8.607,8.607,0,0,0-.687-2.307,3.4,3.4,0,0,0-1.289-1.613,10.033,10.033,0,0,0-2.919-.676,9.045,9.045,0,0,0-2.144.031,21.814,21.814,0,0,1-2.192.384,19.862,19.862,0,0,0-4.775.566,9.305,9.305,0,0,0-1.111.2c-.829.32-1.61.778-2.454,1.042a20.262,20.262,0,0,0-4.41,2.37c-.418.255-.382.685-.046,1.034a14.352,14.352,0,0,1,1.29,1.526,7.833,7.833,0,0,1,1.07,1.751,22.92,22.92,0,0,1,.815,2.966c.084.371-.757,1.218-1.139,1.2a.513.513,0,0,1-.385-.193c-.313-.618-.613-1.245-.88-1.884-.487-1.17-.738-2.462-1.729-3.368-.332-.3-.759-.51-1.06-.837a5.246,5.246,0,0,0-3.351-1.41,15.793,15.793,0,0,0-5.738.87q-1.645,1-3.236,2.082a18.873,18.873,0,0,0-2.318,1.764,27.974,27.974,0,0,0-2.115,2.384,6.554,6.554,0,0,0-.888,1.267.766.766,0,0,0,.252.7c.842.543,1.713,1.044,2.6,1.511a1.438,1.438,0,0,1,.865,1.742c-.145.422-.669.352-.817.341a5.234,5.234,0,0,1-1.664-.884,12.189,12.189,0,0,0-2.554-1.255,4.072,4.072,0,0,0-2.994.128,8.808,8.808,0,0,0-2.847,1.565c-.839.714-1.842,1.246-2.636,2a17.512,17.512,0,0,0-3.615,5.1,5.656,5.656,0,0,0-.642,1.43,14.277,14.277,0,0,0-.26,3.143,8.362,8.362,0,0,0,1.308,2.823,15.42,15.42,0,0,0,2.146,3.867c.317.4.543.872.823,1.3.312.483,4.013,5.11,4.681,5.84,8.063,8.374,12.279,10.908,13.177,11.437.315.186.583.458.908.618a14.606,14.606,0,0,0,1.73.733c.693.237,1.412.4,2.113.613a7.275,7.275,0,0,0,1.333.447c.606.058,1.229-.087,1.843-.072a54.381,54.381,0,0,0,6.419.2,22.922,22.922,0,0,1,3.4.005c2.06.118,4.115.321,6.175.447a15.943,15.943,0,0,0,3.655.167,19.3,19.3,0,0,1,3.86.017c1.319.056,2.636.177,3.954.266a20.784,20.784,0,0,0,2.285.127c.893-.039,1.777-.243,2.67-.3,1.565-.108,3.134-.163,4.7-.239.423-.02.851,0,1.27-.053.883-.111,1.76-.271,2.642-.385,1.631-.211,3.269-.373,4.9-.612,1.075-.158,2.139-.4,3.2-.631a16,16,0,0,0,1.9-.5c.732-.257,1.448-.568,2.152-.9.73-.34,1.449-.706,2.151-1.1.821-.462,1.622-.96,2.424-1.455a21.776,21.776,0,0,0,2.7-1.727c1.283-1.084,2.406-2.357,3.68-3.455a34.246,34.246,0,0,1,2.907-2.067,5.483,5.483,0,0,0,.593-.334c.8-.723,1.586-1.454,2.354-2.207.414-.406.756-.887,1.172-1.291,1.012-.985,2.057-1.936,3.071-2.918.506-.49.973-1.019,1.46-1.529.61-.638,1.267-1.238,1.821-1.921a17.156,17.156,0,0,0,1.5-2.189,6.978,6.978,0,0,0,.887-2.009,6.793,6.793,0,0,0-.082-2.02A10.728,10.728,0,0,0,251.181,855.847Zm-71.223,3.447c-.118.185-.777,1.438-1.388,1.324a.914.914,0,0,1-.765-.8c-.094-.854.921-2.494,2.959-3.811a8.925,8.925,0,0,1,4.018-1.351c.792-.065,1.3.416,1.247.778-.082.574-.456.72-.915.872a16.2,16.2,0,0,0-2.566.777A6.746,6.746,0,0,0,179.958,859.295Zm7.629,4.866a4.856,4.856,0,0,0-3.011.795,4.342,4.342,0,0,0-1.4,1.591,2.522,2.522,0,0,1-.945,1.007.948.948,0,0,1-.9-.132,1.187,1.187,0,0,1-.064-1.3,6.125,6.125,0,0,1,1.13-1.668,6.446,6.446,0,0,1,2.072-1.523,5.494,5.494,0,0,1,2.148-.41c.179.013.6,0,.776.017.418.043,1.194.255,1.164.841A.92.92,0,0,1,187.587,864.16Zm.212-17.814c-1.215.113-2.448.352-3.657.53-.374.055-1.851.347-2.223.414-1.251.225-6.4,1.775-7.237,2.067-1.463.512-6.721,3.236-7.565,3.624a11.389,11.389,0,0,0-1.461.963c-.683.455-1.407.856-2.042,1.37-.821.664-1.542,1.453-2.364,2.116a7.574,7.574,0,0,1-1.663.968c-.341.153-.735-.26-.6-.626a2.647,2.647,0,0,1,.591-.9,23.032,23.032,0,0,1,1.719-1.61,56.879,56.879,0,0,1,6.045-4.455c1.073-.491,3.663-1.985,4.652-2.378.742-.294,3.708-1.14,4.445-1.447.456-.19,3.077-.794,4.29-1.086,1.271-.306,2.685-.49,3.967-.733a15.714,15.714,0,0,1,2.235-.249,6.294,6.294,0,0,1,1.735.14C189.208,845.177,188.762,846.257,187.8,846.346Zm8.548,22.033c.155-1.28,1.392-1.765,3.067-1.433.8.158,1.729,1.049,1.594,1.886-.167,1.04-.654,1.821-2.382,1.882C196.88,870.617,196.2,869.711,196.347,868.38Zm6,7.875a4.82,4.82,0,0,1-3.113,1.5,6.308,6.308,0,0,1-3.627-.87c-.244-.135-.8-.534-.687-.932.092-.312.416-.718.741-.7.635.03.853.357,1.6.7a3.085,3.085,0,0,0,2.793-.136,11.83,11.83,0,0,0,1.218-.86c.425-.307.9-.4,1.189-.037C202.883,875.443,202.826,875.755,202.348,876.254Zm11.733-11.107a2.521,2.521,0,0,1-1.475-.745,4.218,4.218,0,0,0-1.928-1.178,3.073,3.073,0,0,0-1.042-.079,6.759,6.759,0,0,1-1.029.035,2.441,2.441,0,0,1-1.025-.277.8.8,0,0,1-.058-1.167c.524-.583,3.023-.763,4.487-.163a5.062,5.062,0,0,1,2.711,2.322C214.978,864.4,214.7,865.254,214.082,865.147Zm3.131-8.543a.788.788,0,0,1-.585.418,1.234,1.234,0,0,1-.844-.417,5.054,5.054,0,0,0-3.653-2.367,15.693,15.693,0,0,0-3.061-.062c-.335-.006-.925-.256-.969-.672a1.059,1.059,0,0,1,.809-.971c.635-.231,1.62-.612,4.4.1a6.308,6.308,0,0,1,3.519,2.144A1.619,1.619,0,0,1,217.212,856.6Z" transform="translate(-139.751 -827.95)"/>
      <path id="パス_6034" data-name="パス 6034" d="M247.177,848.158a9.935,9.935,0,0,0-1.089-2.211c-.641-.969-1.408-1.853-2.1-2.786a12,12,0,0,0-3.628-3.09,13.374,13.374,0,0,0-1.36-.54q-1.069-.481-2.113-1.013a5.149,5.149,0,0,1-1.3-.782c-.232-.228-.192-.71-.359-1.034a5.827,5.827,0,0,0-.9-1.42,17.231,17.231,0,0,0-1.837-1.546c-.967-.754-1.912-1.548-2.942-2.206a21.3,21.3,0,0,0-3.118-1.636,23.142,23.142,0,0,0-3.636-1.255c-2.038-.488-4.114-.818-6.166-1.25a2.054,2.054,0,0,1-.774-.493c-.3-.249-.531-.617-.866-.791a11.881,11.881,0,0,0-1.877-.754,29.269,29.269,0,0,0-3.445-1,30.336,30.336,0,0,0-7.4-.594c-.914.054-1.839-.077-2.751-.01a22.075,22.075,0,0,0-2.776.43c-.87.177-1.727.417-2.584.653a1.779,1.779,0,0,1-1.871-.295,4.667,4.667,0,0,0-2.831-1.288,15.4,15.4,0,0,0-6.39.137,11.15,11.15,0,0,1-3.019.3,12.258,12.258,0,0,0-4.306.777,28.962,28.962,0,0,0-4.251,1.9c-1.1.577-2.1,1.349-3.177,1.989a2.343,2.343,0,0,1-1.249.429,17.864,17.864,0,0,1-1.83-.5,6.056,6.056,0,0,0-1.672-.112,19.446,19.446,0,0,1-2.183.354c-1.333-.041-2.375.727-3.548,1.108a7.574,7.574,0,0,0-1.722,1.094c-1.13.765-2.3,1.479-3.366,2.326-.8.64-1.415,1.518-2.209,2.174a7.219,7.219,0,0,0-1.794,2.662,1.152,1.152,0,0,1-1.189.809,6.243,6.243,0,0,0-2.229.583A22.884,22.884,0,0,0,143,840.434a11.737,11.737,0,0,0-1.84,1.081,21.729,21.729,0,0,0-2.369,2.187,12.653,12.653,0,0,0-2.205,2.771c-.56,1.13-1.491,2.085-1.7,3.391-.177,1.125-.416,2.243-.532,3.373a3.141,3.141,0,0,0,.289,1.329c.406,1.09.836,2.172,1.3,3.238a21.341,21.341,0,0,0,1.2,2.447c.649,1.089,1.392,2.123,2.088,3.185.381.58.71,1.2,1.132,1.746.79,1.023,1.614,2.02,2.454,3q1.555,1.816,3.163,3.586c1.16,1.281,2.314,2.57,3.527,3.8a16.847,16.847,0,0,0,4.223,3.421c1.135.579,2.19,1.314,3.276,1.987a13.941,13.941,0,0,0,1.923,1.2,26.089,26.089,0,0,0,3.39,1.093,11.752,11.752,0,0,0,2.339.314c1.574.079,3.151.093,4.727.135,2.023.055,4.046.123,6.07.161.609.011.639.014,1.248.013.251,0,1.125.054,1.512.077,2.029.123,5.527.419,6.233.4.2.038,2.367.085,2.567.085.362,0,.827-.052,1.758,0,2.166.165,4.936.026,7.133.1a11.564,11.564,0,0,0,1.913,0c.31-.077.619,0,1.026-.062a8.882,8.882,0,0,1,1.831-.183,39.767,39.767,0,0,0,6.577-.362c.106-.018,1.025-.165,1.706-.233,1.21-.119,1.487-.209,2.687-.4.747-.116,1.462-.427,2.2-.59,1.175-.258,2.381-.395,3.537-.716a29.478,29.478,0,0,0,3.288-1.207c.636-.262,1.226-.635,1.842-.946.516-.26,1.067-.461,1.557-.761.814-.5,1.611-1.032,2.381-1.6,1.165-.854,2.311-1.735,3.447-2.629.619-.487,1.167-1.067,1.806-1.525.574-.411,1.286-.638,1.831-1.077.768-.62,1.436-1.363,2.152-2.049.761-.73,1.533-1.45,2.289-2.185.781-.76,1.543-1.538,2.322-2.3.736-.72,1.5-1.412,2.221-2.147s1.4-1.471,2.068-2.237a27.388,27.388,0,0,0,2.275-2.789c.485-.736.666-1.665,1.08-2.457a6.8,6.8,0,0,0,.344-4.024A18.038,18.038,0,0,0,247.177,848.158Zm-.985,6.883a6.978,6.978,0,0,1-.887,2.009,17.152,17.152,0,0,1-1.5,2.189c-.555.683-1.211,1.283-1.821,1.921-.487.509-.954,1.039-1.46,1.528-1.015.982-2.059,1.933-3.071,2.918-.416.4-.757.885-1.172,1.291-.768.753-1.558,1.484-2.354,2.207a5.464,5.464,0,0,1-.593.334,34.241,34.241,0,0,0-2.907,2.067c-1.274,1.1-2.4,2.37-3.68,3.455a21.776,21.776,0,0,1-2.7,1.727c-.8.495-1.6.993-2.424,1.455-.7.395-1.421.76-2.151,1.1-.7.328-1.42.639-2.152.9a16,16,0,0,1-1.9.5c-1.063.23-2.127.473-3.2.631-1.627.239-3.265.4-4.9.612-.883.114-1.759.275-2.642.385-.419.053-.847.033-1.27.053-1.567.075-3.136.131-4.7.239-.893.062-1.777.266-2.67.3a20.768,20.768,0,0,1-2.285-.127c-1.318-.089-2.635-.21-3.954-.266a19.3,19.3,0,0,0-3.86-.017,15.94,15.94,0,0,1-3.655-.167c-2.06-.126-4.114-.329-6.175-.446a22.931,22.931,0,0,0-3.4-.005,54.381,54.381,0,0,1-6.419-.2c-.614-.015-1.237.129-1.843.072a7.27,7.27,0,0,1-1.333-.447c-.7-.215-1.42-.376-2.113-.613a14.624,14.624,0,0,1-1.73-.733c-.325-.161-.593-.433-.908-.618-.9-.529-5.114-3.063-13.177-11.437-.669-.73-4.369-5.357-4.681-5.84-.279-.431-.506-.9-.823-1.3a15.421,15.421,0,0,1-2.146-3.867,8.363,8.363,0,0,1-1.308-2.823,14.277,14.277,0,0,1,.26-3.143,5.655,5.655,0,0,1,.642-1.43,17.511,17.511,0,0,1,3.615-5.1c.794-.755,1.8-1.287,2.636-2a8.807,8.807,0,0,1,2.847-1.565,4.072,4.072,0,0,1,2.994-.128,12.186,12.186,0,0,1,2.554,1.255,5.235,5.235,0,0,0,1.664.884c.148.011.672.081.817-.341a1.438,1.438,0,0,0-.865-1.742c-.887-.467-1.758-.969-2.6-1.512a.766.766,0,0,1-.252-.7,6.555,6.555,0,0,1,.888-1.267,27.983,27.983,0,0,1,2.115-2.384,18.871,18.871,0,0,1,2.318-1.764q1.587-1.087,3.236-2.082a15.787,15.787,0,0,1,5.738-.87,5.247,5.247,0,0,1,3.351,1.41c.3.327.728.534,1.06.837.991.905,1.242,2.2,1.729,3.368.266.64.566,1.267.88,1.884a.512.512,0,0,0,.385.193c.382.013,1.224-.833,1.139-1.2a22.914,22.914,0,0,0-.815-2.966,7.831,7.831,0,0,0-1.07-1.751,14.347,14.347,0,0,0-1.29-1.526c-.336-.349-.372-.779.046-1.034a20.259,20.259,0,0,1,4.41-2.37c.844-.264,1.625-.722,2.454-1.042a9.282,9.282,0,0,1,1.111-.2,19.862,19.862,0,0,1,4.775-.566,21.832,21.832,0,0,0,2.192-.384,9.044,9.044,0,0,1,2.144-.031,10.033,10.033,0,0,1,2.919.676,3.4,3.4,0,0,1,1.289,1.613,8.607,8.607,0,0,1,.687,2.307c.124.742,0,1.526.122,2.27a1.956,1.956,0,0,0,.637,1.25c.582.375,1.311-.119,1.443-.906a6.574,6.574,0,0,0-.124-3.356,6.106,6.106,0,0,1-.293-1.115c-.056-.368-.023-.689.483-.8,1.3-.276,2.579-.705,3.891-.887a20.526,20.526,0,0,1,3.154.005,24.553,24.553,0,0,0,4.116.039,10.432,10.432,0,0,1,3.783.277,22.957,22.957,0,0,1,3.985,1.38,1.808,1.808,0,0,1,.8.965,7.163,7.163,0,0,1,.361,1.644,12.188,12.188,0,0,1-.586,4.164,13.787,13.787,0,0,1-.543,1.549.626.626,0,0,0,.446.844,1.5,1.5,0,0,0,1.167-.148,3.433,3.433,0,0,0,.827-1.447c.369-1.227.644-2.483.94-3.73a.948.948,0,0,0-.023-.593c-.335-.671-.207-1.144.395-1.379a10.28,10.28,0,0,0,1.149.338c1.109.186,2.24.273,3.332.529a19.931,19.931,0,0,1,2.675.936c.794.311,1.582.646,2.343,1.03a13.551,13.551,0,0,1,1.408.916c.724.486,1.436.991,2.17,1.462a6.46,6.46,0,0,1,2.532,2.289,1.357,1.357,0,0,1,.151.61,8.271,8.271,0,0,1-1.512,4.231c-.377.629-.992,1.423-.406,2.288a.709.709,0,0,0,.611.209c1.48-.356,1.87-1.733,2.558-2.821.265-.419.346-1.024.7-1.3.273-.208.85-.071,1.279,0,.234.037.432.27.662.378a22.723,22.723,0,0,1,2.93,1.386,11.757,11.757,0,0,1,1.97,1.935c.5.535.962,1.1,1.406,1.681a9.514,9.514,0,0,1,1.207,1.753,33.312,33.312,0,0,1,1.394,3.651,10.728,10.728,0,0,1,.331,2.139A6.792,6.792,0,0,1,246.192,855.04Z" transform="translate(-134.348 -822.984)"/>
      <path id="パス_6035" data-name="パス 6035" d="M238.7,889.014a6.3,6.3,0,0,0-1.735-.14,15.714,15.714,0,0,0-2.235.249c-1.282.244-2.7.428-3.967.733-1.213.292-3.835.9-4.29,1.086-.738.307-3.7,1.153-4.445,1.447-.99.392-3.579,1.887-4.652,2.378a56.881,56.881,0,0,0-6.045,4.455,23.047,23.047,0,0,0-1.719,1.61,2.648,2.648,0,0,0-.591.9c-.134.366.26.779.6.626a7.567,7.567,0,0,0,1.663-.968c.822-.663,1.543-1.452,2.364-2.116.635-.513,1.359-.915,2.042-1.37a11.4,11.4,0,0,1,1.461-.963c.844-.388,6.1-3.112,7.565-3.624.837-.293,5.985-1.842,7.237-2.067.372-.067,1.849-.359,2.223-.414,1.209-.178,2.442-.416,3.657-.53C238.791,890.218,239.237,889.139,238.7,889.014Z" transform="translate(-189.779 -871.911)"/>
      <path id="パス_6036" data-name="パス 6036" d="M405.133,917.706c-2.784-.71-3.769-.329-4.4-.1a1.059,1.059,0,0,0-.809.971c.044.416.634.665.969.672a15.7,15.7,0,0,1,3.061.061,5.054,5.054,0,0,1,3.653,2.367,1.234,1.234,0,0,0,.844.417.788.788,0,0,0,.585-.418,1.619,1.619,0,0,0-.379-1.829A6.308,6.308,0,0,0,405.133,917.706Z" transform="translate(-331.569 -893.024)"/>
      <path id="パス_6037" data-name="パス 6037" d="M289.506,928.388c.459-.151.834-.3.915-.872.051-.362-.455-.843-1.247-.778a8.923,8.923,0,0,0-4.018,1.351c-2.039,1.317-3.054,2.957-2.959,3.811a.915.915,0,0,0,.765.8c.611.115,1.269-1.139,1.388-1.324a6.747,6.747,0,0,1,2.59-2.21A16.193,16.193,0,0,1,289.506,928.388Z" transform="translate(-244.142 -900.031)"/>
      <path id="パス_6038" data-name="パス 6038" d="M355.025,1004.823a11.822,11.822,0,0,1-1.218.859,3.084,3.084,0,0,1-2.793.136c-.75-.344-.969-.672-1.6-.7-.325-.015-.65.391-.741.7-.117.4.443.8.687.932a6.309,6.309,0,0,0,3.627.87,4.821,4.821,0,0,0,3.113-1.5c.478-.5.535-.812.117-1.34C355.924,1004.42,355.449,1004.516,355.025,1004.823Z" transform="translate(-293.499 -957.821)"/>
      <path id="パス_6039" data-name="パス 6039" d="M301.341,957.313c-.179-.018-.6,0-.776-.017a5.494,5.494,0,0,0-2.148.41,6.446,6.446,0,0,0-2.072,1.523,6.125,6.125,0,0,0-1.13,1.668,1.187,1.187,0,0,0,.064,1.3.949.949,0,0,0,.9.132,2.521,2.521,0,0,0,.945-1.007,4.343,4.343,0,0,1,1.4-1.591,4.857,4.857,0,0,1,3.011-.795.92.92,0,0,0,.97-.785C302.535,957.568,301.759,957.355,301.341,957.313Z" transform="translate(-253.699 -922.729)"/>
      <path id="パス_6040" data-name="パス 6040" d="M356.48,977.985c1.728-.061,2.215-.843,2.382-1.882.135-.837-.8-1.728-1.594-1.886-1.675-.332-2.912.153-3.067,1.433C354.053,976.981,354.733,977.887,356.48,977.985Zm-.106-2.515c.114-.029,1.052.106.959.671-.063.49-.615.527-.907.518-.653-.016-.813-.4-.814-.583C355.666,975.5,356.121,975.533,356.373,975.469Z" transform="translate(-297.604 -935.219)"/>
      <path id="パス_6041" data-name="パス 6041" d="M401.527,952.559c-1.464-.6-3.963-.42-4.487.163a.8.8,0,0,0,.058,1.167,2.44,2.44,0,0,0,1.025.277,6.759,6.759,0,0,0,1.029-.035,3.07,3.07,0,0,1,1.042.079,4.217,4.217,0,0,1,1.928,1.178,2.521,2.521,0,0,0,1.475.745c.616.107.9-.75.641-1.252A5.062,5.062,0,0,0,401.527,952.559Z" transform="translate(-329.267 -918.935)"/>
    </g>
  </g>
</svg>
