<svg id="レイヤー_1" data-name="レイヤー 1" xmlns="http://www.w3.org/2000/svg" width="67.15" height="43.82" viewBox="0 0 67.15 43.82"><defs><style>.cls-1{fill:#fff;}</style></defs><path class="cls-1" d="M38.88,42a35.3,35.3,0,0,0,9.92-2,33.15,33.15,0,0,0,6.32-3.12c1-.7,2-1.45,2.89-2.25a23.6,23.6,0,0,0,7.09-9.94h0a4.43,4.43,0,0,0,.06-3.28c-.11-.29-.21-.59-.32-.89a11.48,11.48,0,0,0-2.8-4.2c-.17-.16-.36-.29-.54-.44-.39.62-.75,1.2-1.12,1.77a2.13,2.13,0,0,1-.45.5.8.8,0,0,1-1.08,0,.81.81,0,0,1-.09-1.06l.13-.2c.42-.71.84-1.42,1.27-2.12a1.31,1.31,0,0,0-.11-1.58,5.71,5.71,0,0,0-.39-.47,21.92,21.92,0,0,0-6.15-4.53,9.15,9.15,0,0,0-1.14-.42,7.69,7.69,0,0,1-.37,1,3.33,3.33,0,0,1-.63.87.71.71,0,0,1-.91,0,.77.77,0,0,1-.28-.87c0-.13.11-.25.16-.38s.21-.55.3-.83a1.11,1.11,0,0,0-.43-1.35,11.51,11.51,0,0,0-1.89-1.18,28.73,28.73,0,0,0-6-1.86A13,13,0,0,0,38.64,3c0,.2,0,.37,0,.53a4.34,4.34,0,0,1,0,.51,4.57,4.57,0,0,1-.16,1,.81.81,0,0,1-1,.54.89.89,0,0,1-.58-1,15.38,15.38,0,0,0,0-1.92A.63.63,0,0,0,36.33,2a10.59,10.59,0,0,0-1.67-.28,23.61,23.61,0,0,0-5.44.37,18,18,0,0,0-4.55,1.32c-.22.11-.29.2-.22.46a8.82,8.82,0,0,1,.32,1.42v0a.87.87,0,0,1-.73,1c-.45.05-.79-.26-.91-.82C23,5.1,23,4.7,22.84,4.31c-.25-.88-.55-1.1-1.45-1a12.1,12.1,0,0,0-3.71,1.05,24.3,24.3,0,0,0-4.92,3.17,10.17,10.17,0,0,0-2.33,2.3c-.14.21-.18.35,0,.55a2,2,0,0,1,.6,1.71.74.74,0,0,1-.63.69.75.75,0,0,1-.84-.44,2.48,2.48,0,0,1-.17-.48.62.62,0,0,0-.09-.26.69.69,0,0,0-1-.27,6.16,6.16,0,0,0-1.15.57,18,18,0,0,0-4.45,4.48,6.14,6.14,0,0,0-1.09,4.05,22.56,22.56,0,0,0,.93,5,18.31,18.31,0,0,0,3.23,6.3A26.93,26.93,0,0,0,20,41a37.73,37.73,0,0,0,8.12,1.12A89.82,89.82,0,0,0,38.88,42Zm-19-29.77A25,25,0,0,0,14.46,15a22.12,22.12,0,0,0-4.78,4.83,2.28,2.28,0,0,1-.29.33.68.68,0,0,1-.79.11c-.29-.14-.39-.39-.42-.81a3.32,3.32,0,0,1,.29-.6,22.6,22.6,0,0,1,8.63-7.15,40,40,0,0,1,9.91-3,34.46,34.46,0,0,1,8.42-.53,27.47,27.47,0,0,1,7.24,1.4c1.52.53,3,1.13,4.5,1.72a2.35,2.35,0,0,1,.6.38A.77.77,0,0,1,48,12.72a.81.81,0,0,1-1,.19c-1.42-.6-2.83-1.24-4.3-1.74a28.64,28.64,0,0,0-13-1.3A38,38,0,0,0,19.85,12.19Z" transform="translate(0.01 0.01)"/><path d="M51.8,40.53a19.66,19.66,0,0,0,2.64-1.21,41.84,41.84,0,0,0,5.93-4.58,19.34,19.34,0,0,0,4.39-5.62c.68-1.32,1.32-2.67,1.93-4,0,0,0-.08,0-.13A4.66,4.66,0,0,0,67,22.07c-.08-.41-.18-.81-.29-1.2a12.9,12.9,0,0,0-4.44-6.49.54.54,0,0,1-.23-.34A3.66,3.66,0,0,0,61,11.63a18.33,18.33,0,0,0-3.2-2.83A15.5,15.5,0,0,0,52.25,6,.32.32,0,0,1,52,5.85a5.79,5.79,0,0,0-2.77-2.16c-1.44-.59-2.92-1.11-4.41-1.57a16.65,16.65,0,0,0-6.5-.79.38.38,0,0,1-.27-.08,3,3,0,0,0-2-1l-.23,0A14.35,14.35,0,0,0,32.1.07c-.39,0-.78.07-1.17.11a22.87,22.87,0,0,0-7.27,1.87.48.48,0,0,1-.37,0,3.24,3.24,0,0,0-2.2-.39,14.54,14.54,0,0,0-3.72,1,23.3,23.3,0,0,0-5.13,3.16A12,12,0,0,0,8.71,9.45a.35.35,0,0,1-.25.14,5.68,5.68,0,0,0-2.32,1,20.15,20.15,0,0,0-4.58,4.59A7.85,7.85,0,0,0,0,20.48a23.2,23.2,0,0,0,.89,5.1A20.87,20.87,0,0,0,4,32.11a29.78,29.78,0,0,0,4.4,4.65,27.61,27.61,0,0,0,10.54,5.63,24.51,24.51,0,0,0,4.49.84c.78.1,1.55.17,2.33.24A85.35,85.35,0,0,0,35,43.8a39,39,0,0,0,3.9-.17L40,43.47c1.79-.24,3.56-.52,5.33-.88A32.79,32.79,0,0,0,51.8,40.53ZM20,41A26.93,26.93,0,0,1,5.84,31.75a18.31,18.31,0,0,1-3.23-6.3,22.56,22.56,0,0,1-.93-5,6.14,6.14,0,0,1,1.09-4.05A18,18,0,0,1,7.22,11.9a6.16,6.16,0,0,1,1.15-.57.69.69,0,0,1,1,.27.62.62,0,0,1,.09.26,2.48,2.48,0,0,0,.17.48.75.75,0,0,0,.84.44.74.74,0,0,0,.63-.69,2,2,0,0,0-.6-1.71c-.2-.2-.16-.34,0-.55a10.17,10.17,0,0,1,2.33-2.3,24.3,24.3,0,0,1,4.92-3.17,12.1,12.1,0,0,1,3.71-1.05c.9-.1,1.2.12,1.45,1,.11.39.2.79.29,1.18.12.56.46.87.91.82a.87.87,0,0,0,.73-1v0a8.82,8.82,0,0,0-.32-1.42c-.07-.26,0-.35.22-.46a18,18,0,0,1,4.55-1.32,23.61,23.61,0,0,1,5.44-.37A10.59,10.59,0,0,1,36.33,2a.63.63,0,0,1,.55.61,15.38,15.38,0,0,1,0,1.92.89.89,0,0,0,.58,1,.81.81,0,0,0,1-.54,4.57,4.57,0,0,0,.16-1,4.34,4.34,0,0,0,0-.51c0-.16,0-.33,0-.53a13,13,0,0,1,3.73.22,28.73,28.73,0,0,1,6,1.86,11.51,11.51,0,0,1,1.89,1.18,1.11,1.11,0,0,1,.43,1.35c-.09.28-.2.56-.3.83s-.12.25-.16.38a.77.77,0,0,0,.28.87.71.71,0,0,0,.91,0A3.33,3.33,0,0,0,52,8.79a7.69,7.69,0,0,0,.37-1,9.15,9.15,0,0,1,1.14.42,21.92,21.92,0,0,1,6.15,4.53,5.71,5.71,0,0,1,.39.47,1.31,1.31,0,0,1,.11,1.58c-.43.7-.85,1.41-1.27,2.12l-.13.2a.81.81,0,0,0,.09,1.06.8.8,0,0,0,1.08,0,2.13,2.13,0,0,0,.45-.5c.37-.57.73-1.15,1.12-1.77.18.15.37.28.54.44a11.48,11.48,0,0,1,2.8,4.2c.11.3.21.6.32.89a4.43,4.43,0,0,1-.06,3.28h0A23.6,23.6,0,0,1,58,34.62c-.93.8-1.89,1.55-2.89,2.25A33.15,33.15,0,0,1,48.8,40a35.3,35.3,0,0,1-9.92,2,89.82,89.82,0,0,1-10.76.12A37.73,37.73,0,0,1,20,41Z" transform="translate(0.01 0.01)"/><path d="M42.62,11.17c1.47.5,2.88,1.14,4.3,1.74a.81.81,0,0,0,1-.19.77.77,0,0,0-.19-1.06,2.35,2.35,0,0,0-.6-.38c-1.5-.59-3-1.19-4.5-1.72a27.47,27.47,0,0,0-7.24-1.4A34.46,34.46,0,0,0,27,8.69a40,40,0,0,0-9.91,3,22.6,22.6,0,0,0-8.63,7.15,3.32,3.32,0,0,0-.29.6c0,.42.13.67.42.81a.68.68,0,0,0,.79-.11,2.28,2.28,0,0,0,.29-.33A22.12,22.12,0,0,1,14.46,15a25,25,0,0,1,5.39-2.77,38,38,0,0,1,9.81-2.32A28.64,28.64,0,0,1,42.62,11.17Z" transform="translate(0.01 0.01)"/></svg>