<svg xmlns="http://www.w3.org/2000/svg" width="31.961" height="25.975" viewBox="0 0 31.961 25.975">
  <defs>
    <style>
      .cls-1 {
        fill: #dc000c;
      }
    </style>
  </defs>
  <path id="パス_6436" data-name="パス 6436" class="cls-1" d="M181.233,158.8a18.564,18.564,0,0,1-10.051-2.945,13.379,13.379,0,0,0,1.564.091,13.16,13.16,0,0,0,8.144-2.807,6.565,6.565,0,0,1-6.126-4.554,6.553,6.553,0,0,0,2.961-.112,6.561,6.561,0,0,1-5.261-6.429c0-.029,0-.056,0-.084a6.511,6.511,0,0,0,2.97.82,6.562,6.562,0,0,1-2.03-8.754,18.617,18.617,0,0,0,13.516,6.851A6.561,6.561,0,0,1,198.1,134.9a13.141,13.141,0,0,0,4.164-1.592,6.58,6.58,0,0,1-2.884,3.627,13.091,13.091,0,0,0,3.766-1.032,13.345,13.345,0,0,1-3.271,3.4c.013.281.019.564.019.848,0,8.664-6.6,18.656-18.657,18.656" transform="translate(-171.182 -132.824)"/>
</svg>
