<svg xmlns="http://www.w3.org/2000/svg" width="31.961" height="31.96" viewBox="0 0 31.961 31.96">
  <defs>
    <style>
      .cls-1 {
        fill: #dc000c;
      }
    </style>
  </defs>
  <g id="グループ_4521" data-name="グループ 4521" transform="translate(0)">
    <g id="グループ_4520" data-name="グループ 4520" transform="translate(0 0)">
      <path id="パス_6434" data-name="パス 6434" class="cls-1" d="M-24.528,110.681c4.267,0,4.772.016,6.458.093a8.852,8.852,0,0,1,2.967.55,4.951,4.951,0,0,1,1.837,1.2,4.952,4.952,0,0,1,1.2,1.837,8.842,8.842,0,0,1,.55,2.967c.077,1.685.093,2.191.093,6.457s-.016,4.772-.093,6.457a8.843,8.843,0,0,1-.55,2.967,4.952,4.952,0,0,1-1.2,1.837,4.947,4.947,0,0,1-1.837,1.2,8.843,8.843,0,0,1-2.967.55c-1.685.077-2.19.093-6.458.093s-4.772-.016-6.457-.093a8.842,8.842,0,0,1-2.967-.55,4.95,4.95,0,0,1-1.837-1.2,4.951,4.951,0,0,1-1.2-1.837,8.836,8.836,0,0,1-.55-2.967c-.077-1.685-.093-2.19-.093-6.457s.016-4.772.093-6.457a8.835,8.835,0,0,1,.55-2.967,4.951,4.951,0,0,1,1.2-1.837,4.954,4.954,0,0,1,1.837-1.2,8.851,8.851,0,0,1,2.967-.55c1.685-.077,2.191-.093,6.457-.093m0-2.879c-4.34,0-4.884.018-6.589.1a11.725,11.725,0,0,0-3.879.743,7.835,7.835,0,0,0-2.831,1.843,7.831,7.831,0,0,0-1.843,2.83,11.733,11.733,0,0,0-.743,3.879c-.078,1.7-.1,2.248-.1,6.589s.019,4.884.1,6.589a11.733,11.733,0,0,0,.743,3.879,7.833,7.833,0,0,0,1.843,2.83A7.839,7.839,0,0,0-35,138.923a11.731,11.731,0,0,0,3.879.743c1.7.078,2.249.1,6.589.1s4.884-.018,6.589-.1a11.731,11.731,0,0,0,3.879-.743,7.836,7.836,0,0,0,2.83-1.843,7.831,7.831,0,0,0,1.843-2.83,11.727,11.727,0,0,0,.743-3.879c.078-1.7.1-2.249.1-6.589s-.019-4.884-.1-6.589a11.727,11.727,0,0,0-.743-3.879,7.828,7.828,0,0,0-1.843-2.83,7.832,7.832,0,0,0-2.83-1.843,11.725,11.725,0,0,0-3.879-.743c-1.7-.078-2.249-.1-6.589-.1Z" transform="translate(40.508 -107.802)"/>
      <path id="パス_6435" data-name="パス 6435" class="cls-1" d="M-3.832,136.271a8.206,8.206,0,0,0-8.206,8.206,8.206,8.206,0,0,0,8.206,8.206,8.206,8.206,0,0,0,8.206-8.206A8.206,8.206,0,0,0-3.832,136.271Zm0,13.533a5.327,5.327,0,0,1-5.327-5.327,5.327,5.327,0,0,1,5.327-5.327,5.327,5.327,0,0,1,5.327,5.327A5.327,5.327,0,0,1-3.832,149.8Z" transform="translate(19.812 -128.497)"/>
      <ellipse id="楕円形_231" data-name="楕円形 231" class="cls-1" cx="1.918" cy="1.918" rx="1.918" ry="1.918" transform="translate(22.593 5.532)"/>
    </g>
  </g>
</svg>
