<svg id="レイヤー_1" data-name="レイヤー 1" xmlns="http://www.w3.org/2000/svg" width="59.1" height="38.56" viewBox="0 0 59.1 38.56"><defs><style>.cls-1{isolation:isolate;}.cls-2{fill:#dc000c;}</style></defs><g id="グループ_4524" data-name="グループ 4524"><g id="Scroll" class="cls-1"><g class="cls-1"><path class="cls-2" d="M15.79,28.46h-.61c-2.42,0-3.85-1.28-4.09-3.05v-.05c0-.32.35-.59.85-.59,1.55,0,.3,2.19,3.29,2.19h.52C17.49,27,18,26.24,18,25.6v-.15c0-.82-.48-1.08-1.56-1.39l-2.37-.69c-1.81-.52-2.69-1.32-2.69-2.6V20.6c0-1.6,1.23-2.82,3.82-2.82h.65a3.38,3.38,0,0,1,3.66,2.88v.06c0,.32-.34.57-.82.57-1.51,0-.32-2-2.85-2h-.66c-1.42,0-2.08.47-2.08,1.33v.1c0,.53.31.86,1.5,1.21l2.44.71C19,23.19,19.8,24,19.8,25.36v.23C19.8,27.18,18.35,28.46,15.79,28.46Z" transform="translate(0 0)"/><path class="cls-2" d="M24.21,28.28H24c-1.93,0-3.37-1.1-3.37-3.66v-.38c0-2.3,1.3-3.69,3.34-3.69h.25A3,3,0,0,1,27.53,23V23c0,.32-.34.55-.8.55-1.4,0-.49-1.59-2.51-1.59H24c-1,0-1.74.61-1.74,2.3v.26c0,1.63.75,2.27,1.77,2.27h.16c2,0,1.11-1.6,2.51-1.6.46,0,.8.23.8.54v.07A3,3,0,0,1,24.21,28.28Z" transform="translate(0 0)"/><path class="cls-2" d="M33,22.29h-.5a2.18,2.18,0,0,0-2.26,1.65v3.78c0,.33-.33.6-.81.6s-.8-.27-.8-.6V21.09c0-.31.3-.56.76-.56s.76.25.76.56v1.08a2.61,2.61,0,0,1,2.44-1.52H33c.33,0,.61.33.61.82S33.36,22.29,33,22.29Z" transform="translate(0 0)"/><path class="cls-2" d="M37.63,28.37h-.15c-2,0-3.36-1.27-3.36-3.75v-.3c0-2.34,1.32-3.79,3.36-3.79h.15c1.93,0,3.36,1.32,3.36,3.79v.3C41,27.15,39.55,28.37,37.63,28.37Zm1.75-4c0-1.74-.78-2.36-1.77-2.36H37.5c-1.06,0-1.76.63-1.76,2.36v.26c0,1.56.78,2.25,1.76,2.25h.11c.93,0,1.77-.64,1.77-2.25Z" transform="translate(0 0)"/><path class="cls-2" d="M42.91,28.31c-.46,0-.76-.25-.76-.55V18.41c0-.29.3-.54.76-.54s.74.25.74.54v9.35C43.65,28.06,43.35,28.31,42.91,28.31Z" transform="translate(0 0)"/><path class="cls-2" d="M46,28.31c-.46,0-.75-.25-.75-.55V18.41c0-.29.29-.54.75-.54s.74.25.74.54v9.35C46.7,28.06,46.4,28.31,46,28.31Z" transform="translate(0 0)"/></g></g><g id="グループ_4523" data-name="グループ 4523"><path id="パス_6437" data-name="パス 6437" class="cls-2" d="M54.82,12.65a.52.52,0,0,1-.2-.3,3.23,3.23,0,0,0-1-2.12,16.28,16.28,0,0,0-2.82-2.49A13.57,13.57,0,0,0,46,5.28a.33.33,0,0,1-.19-.13,5,5,0,0,0-2.44-1.9c-1.27-.52-2.57-1-3.87-1.38a14.63,14.63,0,0,0-5.72-.7.29.29,0,0,1-.24-.07A2.68,2.68,0,0,0,31.77.19,12.22,12.22,0,0,0,28.25.07,20.32,20.32,0,0,0,20.82,1.8a.36.36,0,0,1-.32,0,2.82,2.82,0,0,0-1.93-.33,12.09,12.09,0,0,0-3.28.89,20.48,20.48,0,0,0-4.51,2.77A10.6,10.6,0,0,0,7.67,8.31a.3.3,0,0,1-.22.12,5.07,5.07,0,0,0-2,.89,17.8,17.8,0,0,0-4,4A6.84,6.84,0,0,0,0,18,20.12,20.12,0,0,0,.8,22.51a18.28,18.28,0,0,0,2.73,5.74A25.86,25.86,0,0,0,7.4,32.34a24.27,24.27,0,0,0,9.28,5,21.27,21.27,0,0,0,4,.74,74.48,74.48,0,0,0,10.13.5c1.14,0,2.3,0,3.43-.15,1.9-.24,3.81-.53,5.69-.91a29.08,29.08,0,0,0,5.7-1.81,18.16,18.16,0,0,0,2.33-1.07,36.46,36.46,0,0,0,5.21-4A16.85,16.85,0,0,0,57,25.63c.6-1.17,1.16-2.36,1.69-3.56A4.11,4.11,0,0,0,59,19.42,11.36,11.36,0,0,0,54.82,12.65Zm2.46,9.07A20.76,20.76,0,0,1,51,30.47c-.81.7-1.66,1.36-2.54,2a28.72,28.72,0,0,1-5.56,2.74,31,31,0,0,1-8.73,1.73,78.59,78.59,0,0,1-9.46.11,33.11,33.11,0,0,1-7.15-1,23.64,23.64,0,0,1-12.46-8.1A16.13,16.13,0,0,1,2.29,22.4,19.65,19.65,0,0,1,1.48,18a5.38,5.38,0,0,1,1-3.56,15.74,15.74,0,0,1,3.91-3.94,5,5,0,0,1,1-.5.62.62,0,0,1,.84.23.68.68,0,0,1,.08.24,3.52,3.52,0,0,0,.15.42.69.69,0,0,0,1.3-.23,1.83,1.83,0,0,0-.53-1.5c-.17-.18-.14-.3,0-.48a8.93,8.93,0,0,1,2.05-2,21.09,21.09,0,0,1,4.33-2.8,10.64,10.64,0,0,1,3.27-.92c.79-.08,1.06.1,1.27.88.1.34.18.69.26,1s.4.77.8.72a.76.76,0,0,0,.64-.87v0a7.77,7.77,0,0,0-.28-1.25c-.07-.22,0-.31.19-.4a16,16,0,0,1,4-1.16,21.38,21.38,0,0,1,4.79-.33A10.26,10.26,0,0,1,32,1.76a.57.57,0,0,1,.49.53,16.07,16.07,0,0,1,0,1.7.79.79,0,0,0,.51.9.72.72,0,0,0,.88-.48A3.51,3.51,0,0,0,34,3.56a3.38,3.38,0,0,0,0-.45c0-.14,0-.29,0-.46a11,11,0,0,1,3.29.19,24.62,24.62,0,0,1,5.23,1.64,9.87,9.87,0,0,1,1.67,1,1,1,0,0,1,.38,1.19c-.08.25-.18.49-.27.73s-.1.22-.14.33a.69.69,0,0,0,.25.77.63.63,0,0,0,.8,0,3,3,0,0,0,.55-.76,7.28,7.28,0,0,0,.32-.93,9.41,9.41,0,0,1,1,.37,19.26,19.26,0,0,1,5.41,4c.12.13.23.27.34.41a1.16,1.16,0,0,1,.1,1.39c-.38.62-.75,1.25-1.12,1.87L51.7,15a.71.71,0,0,0,.08.93.7.7,0,0,0,1,0,2.32,2.32,0,0,0,.39-.44c.33-.5.64-1,1-1.55a5.71,5.71,0,0,1,.48.38,9.93,9.93,0,0,1,2.46,3.7c.1.26.19.53.28.79a3.83,3.83,0,0,1,0,2.88Z" transform="translate(0 0)"/><path id="パス_6438" data-name="パス 6438" class="cls-2" d="M42,10.26a2,2,0,0,0-.52-.34c-1.32-.51-2.63-1-4-1.51a23.88,23.88,0,0,0-6.37-1.23,30.06,30.06,0,0,0-7.4.46,35.4,35.4,0,0,0-8.72,2.63,19.6,19.6,0,0,0-7.6,6.29,2.53,2.53,0,0,0-.26.52.75.75,0,0,0,.37.72.59.59,0,0,0,.69-.1,2.35,2.35,0,0,0,.26-.29,19.07,19.07,0,0,1,4.21-4.25,21.06,21.06,0,0,1,4.74-2.44,33.3,33.3,0,0,1,8.63-2A25.2,25.2,0,0,1,37.5,9.82c1.29.44,2.53,1,3.79,1.53a.71.71,0,0,0,.91-.16A.68.68,0,0,0,42,10.26Z" transform="translate(0 0)"/></g></g></svg>